<?xml version="1.0" encoding="utf-8"?>
<!-- Generator: Adobe Illustrator 25.2.0, SVG Export Plug-In . SVG Version: 6.00 Build 0)  -->
<svg version="1.1" id="Layer_1" xmlns="http://www.w3.org/2000/svg" xmlns:xlink="http://www.w3.org/1999/xlink" x="0px" y="0px"
	 viewBox="0 0 693.62 477.11" style="enable-background:new 0 0 693.62 477.11;" xml:space="preserve">
<style type="text/css">
	.st0{fill:#FFFFFF;}
	.st1{fill:#231F20;}
	.st2{fill:none;stroke:#000000;stroke-width:3;stroke-miterlimit:10;}
</style>
<g>
	<path class="st0" d="M504.09,317.7H189.53c-43.71,0-79.15-35.44-79.15-79.15v0c0-43.71,35.44-79.15,79.15-79.15h314.55
		c43.71,0,79.15,35.44,79.15,79.15v0C583.23,282.27,547.8,317.7,504.09,317.7z"/>
	<circle class="st1" cx="494.47" cy="238.55" r="62.55"/>
	<g>
		<path class="st2" d="M272.08,224.58l-26.95-26.95c-1.22-1.22-1.22-3.19,0-4.41l0,0c1.22-1.22,3.19-1.22,4.41,0l26.95,26.95
			c1.22,1.22,1.22,3.19,0,4.41l0,0C275.27,225.8,273.29,225.8,272.08,224.58z"/>
		<polyline class="st2" points="272.46,224.91 256.91,240.46 229.24,212.79 244.79,197.24 		"/>
		<path class="st2" d="M229.25,212.79l-4.66,12.44c-0.35,0.92-0.12,1.96,0.58,2.65l16.69,16.69c0.7,0.7,1.74,0.92,2.66,0.57
			l12.41-4.69"/>
		<path class="st2" d="M224.97,227.68l-45.46,45.46c-2.35,2.35-2.35,6.15,0,8.5l1.91,1.91"/>
		<path class="st2" d="M242.06,244.76l-45.46,45.46c-2.35,2.35-6.15,2.35-8.5,0l-1.91-1.91"/>
		<circle class="st2" cx="221.03" cy="248.68" r="3.51"/>
		<path class="st2" d="M186.19,288.31l-2.18,2.18c-1.31,1.31-3.45,1.31-4.75,0c-1.31-1.31-1.32-3.45-0.01-4.76l2.18-2.18
			L186.19,288.31z"/>
		<path class="st2" d="M269.23,212.91c1.07-1.34,1.69-2.91,1.87-4.53c0.04-0.33,0.06-0.67,0.06-1c0-2.27-0.86-4.53-2.59-6.25
			c-1.98-1.98-4.67-2.83-7.25-2.54c-1.61,0.18-3.19,0.8-4.53,1.87"/>
		<path d="M276.94,192.85L276.94,192.85c-0.69-0.69-0.69-1.81,0-2.5l9.04-9.04c0.69-0.69,1.81-0.69,2.5,0l0,0
			c0.69,0.69,0.69,1.81,0,2.5l-9.04,9.04C278.75,193.54,277.63,193.54,276.94,192.85z"/>
		<path d="M282.28,201.89L282.28,201.89c-0.25-0.94,0.31-1.91,1.25-2.16l7.9-2.12c0.94-0.25,1.91,0.31,2.16,1.25l0,0
			c0.25,0.94-0.31,1.91-1.25,2.16l-7.9,2.12C283.5,203.39,282.53,202.83,282.28,201.89z"/>
		<path d="M267.71,187.62L267.71,187.62c-0.94-0.25-1.5-1.22-1.25-2.16l2.18-8.15c0.25-0.94,1.22-1.5,2.16-1.25l0,0
			c0.94,0.25,1.5,1.22,1.25,2.16l-2.18,8.15C269.62,187.31,268.65,187.87,267.71,187.62z"/>
	</g>
</g>
</svg>
