<?xml version="1.0" encoding="utf-8"?>
<!-- Generator: Adobe Illustrator 25.2.0, SVG Export Plug-In . SVG Version: 6.00 Build 0)  -->
<svg version="1.1" id="Layer_4" xmlns="http://www.w3.org/2000/svg" xmlns:xlink="http://www.w3.org/1999/xlink" x="0px" y="0px"
	 viewBox="0 0 500 500" style="enable-background:new 0 0 500 500;" xml:space="preserve">
<style type="text/css">
	.st0{fill:#FEF192;stroke:#000000;stroke-width:2;stroke-linecap:round;stroke-linejoin:round;stroke-miterlimit:10;}
	.st1{fill:#FEF192;stroke:#000000;stroke-linecap:round;stroke-linejoin:round;stroke-miterlimit:10;}
	.st2{fill:#FEBAA9;stroke:#000000;stroke-width:2;stroke-linecap:round;stroke-linejoin:round;stroke-miterlimit:10;}
	.st3{fill:none;stroke:#000000;stroke-width:2;stroke-linecap:round;stroke-linejoin:round;stroke-miterlimit:10;}
	.st4{fill:#FEBAA9;stroke:#000000;stroke-width:2;stroke-miterlimit:10;}
	.st5{fill:none;stroke:#000000;stroke-linecap:round;stroke-linejoin:round;stroke-miterlimit:10;}
	.st6{fill:#C00B01;stroke:#000000;stroke-width:3;stroke-linecap:round;stroke-linejoin:round;stroke-miterlimit:10;}
	.st7{fill:#FE85BE;stroke:#000000;stroke-linecap:round;stroke-linejoin:round;stroke-miterlimit:10;}
	.st8{fill:#E032A7;stroke:#000000;stroke-linecap:round;stroke-linejoin:round;stroke-miterlimit:10;}
	.st9{fill:#FD607F;stroke:#000000;stroke-linecap:round;stroke-linejoin:round;stroke-miterlimit:10;}
	.st10{fill:#CB1839;stroke:#000000;stroke-linecap:round;stroke-linejoin:round;stroke-miterlimit:10;}
	.st11{fill:#C00B01;stroke:#000000;stroke-linecap:round;stroke-linejoin:round;stroke-miterlimit:10;}
	.st12{fill:#FC1600;stroke:#000000;stroke-linecap:round;stroke-linejoin:round;stroke-miterlimit:10;}
	.st13{fill:#FEBAA9;stroke:#000000;stroke-linecap:round;stroke-linejoin:round;stroke-miterlimit:10;}
	.st14{fill:#FEEC01;stroke:#000000;stroke-miterlimit:10;}
	.st15{fill:#FEEC01;stroke:#000000;stroke-linecap:round;stroke-linejoin:round;stroke-miterlimit:10;}
	.st16{fill:#FD4755;stroke:#000000;stroke-linecap:round;stroke-linejoin:round;stroke-miterlimit:10;}
	.st17{fill:#FEA514;stroke:#000000;stroke-width:2;stroke-linecap:round;stroke-linejoin:round;stroke-miterlimit:10;}
	.st18{fill:#FECB50;stroke:#000000;stroke-linecap:round;stroke-linejoin:round;stroke-miterlimit:10;}
	.st19{fill:#FE5F15;stroke:#000000;stroke-linecap:round;stroke-linejoin:round;stroke-miterlimit:10;}
	.st20{fill:#FEA514;stroke:#000000;stroke-linecap:round;stroke-linejoin:round;stroke-miterlimit:10;}
	.st21{fill:#FECB50;stroke:#000000;stroke-width:2;stroke-linecap:round;stroke-linejoin:round;stroke-miterlimit:10;}
	.st22{fill:#FE5F15;stroke:#000000;stroke-width:2;stroke-linecap:round;stroke-linejoin:round;stroke-miterlimit:10;}
	.st23{fill:#0043C1;stroke:#000000;stroke-width:2;stroke-linecap:round;stroke-linejoin:round;stroke-miterlimit:10;}
	.st24{fill:#78287D;stroke:#000000;stroke-width:2;stroke-linecap:round;stroke-linejoin:round;stroke-miterlimit:10;}
	.st25{fill:#5D1F74;stroke:#000000;stroke-width:2;stroke-linecap:round;stroke-linejoin:round;stroke-miterlimit:10;}
	.st26{fill:#0266C3;stroke:#000000;stroke-linecap:round;stroke-linejoin:round;stroke-miterlimit:10;}
	.st27{fill:#FEF46B;stroke:#000000;stroke-linecap:round;stroke-linejoin:round;stroke-miterlimit:10;}
	.st28{fill:#FED704;stroke:#000000;stroke-linecap:round;stroke-linejoin:round;stroke-miterlimit:10;}
	.st29{fill:#879D20;stroke:#000000;stroke-linecap:round;stroke-linejoin:round;stroke-miterlimit:10;}
	.st30{fill:#205A1A;stroke:#000000;stroke-linecap:round;stroke-linejoin:round;stroke-miterlimit:10;}
	.st31{fill:#BE5705;stroke:#000000;stroke-linecap:round;stroke-linejoin:round;stroke-miterlimit:10;}
	.st32{fill:#00863F;stroke:#000000;stroke-linecap:round;stroke-linejoin:round;stroke-miterlimit:10;}
	.st33{fill:#2FCC5D;stroke:#000000;stroke-linecap:round;stroke-linejoin:round;stroke-miterlimit:10;}
	.st34{fill:#5D1F74;stroke:#000000;stroke-linecap:round;stroke-linejoin:round;stroke-miterlimit:10;}
	.st35{fill:#BA1F3F;stroke:#000000;stroke-linecap:round;stroke-linejoin:round;stroke-miterlimit:10;}
	.st36{fill:#0043C1;stroke:#000000;stroke-linecap:round;stroke-linejoin:round;stroke-miterlimit:10;}
	.st37{fill:#78287D;stroke:#000000;stroke-linecap:round;stroke-linejoin:round;stroke-miterlimit:10;}
	.st38{fill:#C6F62F;stroke:#000000;stroke-linecap:round;stroke-linejoin:round;stroke-miterlimit:10;}
	.st39{fill:#B4D522;stroke:#000000;stroke-linecap:round;stroke-linejoin:round;stroke-miterlimit:10;}
	.st40{fill:#C6F62F;stroke:#000000;stroke-miterlimit:10;}
	.st41{fill:#00863F;stroke:#000000;stroke-miterlimit:10;}
	.st42{fill:#B4D522;stroke:#000000;stroke-miterlimit:10;}
	.st43{fill:#2FCC5D;stroke:#000000;stroke-miterlimit:10;}
	.st44{fill:#849A1F;stroke:#000000;stroke-miterlimit:10;}
	.st45{fill:#879D20;stroke:#000000;stroke-miterlimit:10;}
	.st46{fill:#12B084;stroke:#000000;stroke-miterlimit:10;}
	.st47{fill:#205A1A;stroke:#000000;stroke-miterlimit:10;}
	.st48{fill:#0B0559;stroke:#000000;stroke-miterlimit:10;}
	.st49{fill:#AD398F;stroke:#000000;stroke-miterlimit:10;}
	.st50{fill:#B2DD2A;stroke:#000000;stroke-miterlimit:10;}
	.st51{fill:#749DBE;stroke:#000000;stroke-miterlimit:10;}
	.st52{fill:#0266C3;stroke:#000000;stroke-miterlimit:10;}
	.st53{fill:#042E9F;stroke:#000000;stroke-miterlimit:10;}
	.st54{fill:#062F3F;stroke:#000000;stroke-miterlimit:10;}
	.st55{fill:#0043C1;}
	.st56{fill:#0043C1;stroke:#000000;stroke-miterlimit:10;}
	.st57{fill:#006D61;stroke:#000000;stroke-miterlimit:10;}
	.st58{fill:#5D1F74;stroke:#000000;stroke-miterlimit:10;}
	.st59{fill:#654DBD;stroke:#000000;stroke-width:2;stroke-miterlimit:10;}
	.st60{fill:#4FBFEC;stroke:#000000;stroke-miterlimit:10;}
	.st61{fill:#38298C;stroke:#000000;stroke-miterlimit:10;}
	.st62{fill:#38298C;stroke:#000000;stroke-width:2;stroke-miterlimit:10;}
	.st63{fill:#4FBFEC;stroke:#000000;stroke-width:2;stroke-miterlimit:10;}
	.st64{fill:#042E9F;stroke:#000000;stroke-width:2;stroke-miterlimit:10;}
	.st65{fill:#0B0559;stroke:#000000;stroke-width:2;stroke-miterlimit:10;}
	.st66{fill:#009DE9;stroke:#000000;stroke-width:2;stroke-miterlimit:10;}
	.st67{fill:#0043C1;stroke:#000000;stroke-width:2;stroke-miterlimit:10;}
	.st68{fill:#5D1F74;stroke:#000000;stroke-width:2;stroke-miterlimit:10;}
	.st69{fill:#199A91;stroke:#000000;stroke-miterlimit:10;}
	.st70{fill:#009DE9;stroke:#000000;stroke-miterlimit:10;}
	.st71{fill:#27BB6E;stroke:#000000;stroke-miterlimit:10;}
	.st72{fill:#80DE62;stroke:#000000;stroke-miterlimit:10;}
	.st73{fill:#FEA514;stroke:#000000;stroke-width:3;stroke-miterlimit:10;}
</style>
<g>
	<polygon class="st0" points="355.67,77.05 334.32,82.68 329.56,44.87 	"/>
	<path class="st1" d="M334.32,82.68c-6.76,3.69-13.51,7.38-20.27,11.06c-1.61-12.5-3.22-25-4.83-37.49
		C317.58,65.06,325.95,73.87,334.32,82.68z"/>
	<path class="st2" d="M314.04,93.74l-33.92-21.61c2.81-1.55,5.63-3.1,8.44-4.66c2.7-1.46,5.39-2.93,8.08-4.39
		c4.19-2.27,8.37-4.55,12.56-6.83L314.04,93.74z"/>
	<path class="st3" d="M288.56,67.47c-2.83,1.54-5.67,3.08-8.5,4.62l0.06,0.04"/>
	<line class="st3" x1="329.56" y1="44.87" x2="309.21" y2="56.25"/>
	<path class="st4" d="M283.94,111.3l-36-20.95l24.67-14.08c0.01-0.01,0.02-0.01,0.03-0.02c2.48-1.37,4.96-2.74,7.43-4.1
		L283.94,111.3z"/>
	<line class="st5" x1="280.06" y1="72.02" x2="272.63" y2="76.26"/>
	<line class="st5" x1="280.07" y1="72.15" x2="280.06" y2="72.09"/>
	<path class="st6" d="M174,104.39v0.13l-0.2,27.51l-20.58-25.35l4.67-0.36C163.26,105.68,168.63,105.04,174,104.39z"/>
	<polyline class="st3" points="128.13,159.29 120.56,125.01 134.65,120.68 134.65,117.09 152.87,112.19 153.22,106.68 	"/>
	<polyline class="st3" points="157.89,106.32 161.26,83.11 192.04,85.61 190.06,70.56 200.12,79.54 214.25,52.2 235.91,61.48 
		239.3,57.25 244.42,59.92 257.37,47.07 260.58,48.99 271.04,38.81 296.65,63.08 	"/>
	<path class="st5" d="M135.83,153.99c-5.09-9.66-10.18-19.32-15.27-28.98"/>
	<line class="st5" x1="135.83" y1="153.99" x2="134.65" y2="120.68"/>
	<line class="st5" x1="151.87" y1="144.65" x2="134.65" y2="117.09"/>
	<line class="st5" x1="152.87" y1="112.19" x2="151.87" y2="144.65"/>
	<path class="st3" d="M199.08,117.67l-6.23-23.57l-18.59,0.14c-0.09,3.42-0.18,6.85-0.27,10.27"/>
	<line class="st3" x1="199.08" y1="117.67" x2="174.27" y2="94.25"/>
	<polyline class="st3" points="192.04,85.61 192.86,94.1 161.26,83.11 	"/>
	<polyline class="st3" points="200.12,79.54 207.82,85.52 196.47,81.72 192.86,94.1 	"/>
	<path class="st7" d="M296.65,63.08c-2.7,1.46-5.39,2.93-8.08,4.39c-5.84-9.55-11.68-19.11-17.52-28.66
		C279.58,46.9,288.11,54.99,296.65,63.08z"/>
	<path class="st8" d="M260.58,48.99c3.49-3.39,6.97-6.78,10.46-10.17c5.84,9.55,11.68,19.11,17.52,28.66
		C279.24,61.31,269.91,55.15,260.58,48.99z"/>
	<path class="st7" d="M288.56,67.47c-2.81,1.55-5.63,3.11-8.44,4.66c-0.02,0.01-0.04,0.02-0.05,0.03c-2.48,1.37-4.96,2.74-7.43,4.1
		c-0.01,0.01-0.02,0.01-0.03,0.02c-5.08-9.73-10.15-19.47-15.23-29.2C267.77,53.87,278.17,60.67,288.56,67.47z"/>
	<path class="st7" d="M226.92,74.26c-2.95-1.7-5.91-3.39-8.86-5.09c-3.42,5.45-6.83,10.9-10.25,16.35
		c2.14-11.11,4.28-22.21,6.43-33.32c7.22,3.1,14.44,6.19,21.66,9.29C232.91,65.74,229.92,70,226.92,74.26z"/>
	<path class="st8" d="M244.42,59.92c4.32-4.28,8.63-8.56,12.95-12.84c5.08,9.73,10.15,19.47,15.23,29.2
		C263.21,70.82,253.81,65.37,244.42,59.92z"/>
	<path class="st7" d="M251.08,88.55c-3.93-10.44-7.86-20.87-11.78-31.31c11.11,6.34,22.22,12.67,33.33,19.01
		C265.45,80.36,258.26,84.45,251.08,88.55z"/>
	<path class="st8" d="M226.92,74.26c4.12-5.67,8.25-11.34,12.37-17.01c3.93,10.44,7.86,20.87,11.78,31.31
		C243.03,83.79,234.98,79.02,226.92,74.26z"/>
	<path class="st9" d="M225.9,102.59c-2.61-11.14-5.23-22.29-7.84-33.43c11.01,6.46,22.01,12.93,33.02,19.39
		C242.69,93.23,234.3,97.91,225.9,102.59z"/>
	<path class="st10" d="M207.82,85.52c3.42-5.45,6.83-10.9,10.25-16.35c2.61,11.14,5.23,22.29,7.84,33.43
		c-9.81-6.96-19.62-13.92-29.44-20.87C200.25,82.98,204.03,84.25,207.82,85.52z"/>
	<path class="st9" d="M192.86,94.1c-0.93-7.85-1.87-15.7-2.8-23.55c5.92,4.99,11.84,9.97,17.76,14.96
		c-3.78-1.27-7.57-2.53-11.35-3.8C195.26,85.85,194.06,89.97,192.86,94.1z"/>
	<path class="st9" d="M199.08,117.67c-0.87-11.99-1.75-23.97-2.62-35.96c9.81,6.96,19.62,13.92,29.44,20.87
		C216.96,107.62,208.02,112.65,199.08,117.67z"/>
	<path class="st10" d="M192.86,94.1c1.2-4.13,2.4-8.26,3.61-12.39c0.87,11.99,1.75,23.97,2.62,35.96
		C197.01,109.82,194.93,101.96,192.86,94.1z"/>
	<path class="st8" d="M200.12,79.54c4.71-9.11,9.42-18.23,14.12-27.34c-2.14,11.11-4.28,22.21-6.43,33.32
		C205.25,83.52,202.69,81.53,200.12,79.54z"/>
	<path class="st11" d="M192.04,85.61c0.27,2.83,0.55,5.66,0.82,8.49c-10.53-3.66-21.07-7.33-31.6-10.99
		C171.52,83.95,181.78,84.78,192.04,85.61z"/>
	<path class="st11" d="M192.86,94.1c2.08,7.86,4.15,15.71,6.23,23.57c-8.27-7.81-16.54-15.62-24.82-23.43
		C180.47,94.2,186.66,94.15,192.86,94.1z"/>
	<path class="st11" d="M152.54,112.28c-0.22,10.79-0.45,21.58-0.67,32.37c-5.74-9.18-11.48-18.37-17.22-27.55
		C140.61,115.49,146.58,113.88,152.54,112.28z"/>
	<path class="st11" d="M134.65,120.68c0.39,11.1,0.79,22.21,1.18,33.31c-5.09-9.66-10.18-19.32-15.27-28.98
		C125.26,123.57,129.95,122.13,134.65,120.68z"/>
	<path class="st12" d="M199.08,117.67c-8.43,4.79-16.86,9.57-25.28,14.36c0.16-12.59,0.31-25.19,0.47-37.78
		C182.54,102.06,190.81,109.86,199.08,117.67z"/>
	<path class="st12" d="M173.8,132.03c-7.31,4.21-14.62,8.41-21.93,12.62c0.45-12.66,0.9-25.31,1.35-37.97
		C160.08,115.13,166.94,123.58,173.8,132.03z"/>
	<path class="st12" d="M151.87,144.65c-5.35,3.11-10.69,6.23-16.04,9.34c-0.39-12.3-0.79-24.6-1.18-36.9
		C140.39,126.28,146.13,135.46,151.87,144.65z"/>
	<path class="st12" d="M135.83,153.99c-2.59,1.64-5.18,3.29-7.78,4.93c-2.5-11.3-4.99-22.61-7.49-33.91
		C125.65,134.67,130.74,144.33,135.83,153.99z"/>
	<path class="st12" d="M174,104.39c-5.37,0.64-10.74,1.28-16.11,1.92c1.12-7.74,2.25-15.47,3.37-23.21
		c10.53,3.66,21.07,7.33,31.6,10.99c-6.2,0.05-12.39,0.1-18.59,0.14C174.18,97.63,174.09,101.01,174,104.39z"/>
	<path class="st13" d="M329.56,44.87c-6.78,3.79-13.56,7.58-20.35,11.38c8.37,8.81,16.74,17.62,25.11,26.43
		C332.73,70.08,331.14,57.47,329.56,44.87z"/>
	<path class="st14" d="M314.04,93.74l-30.11,17.56l-3.87-39.14c0.02-0.01,0.04-0.02,0.05-0.03L314.04,93.74z"/>
	<path class="st15" d="M247.93,90.35c0.44,13.63,0.88,27.26,1.32,40.88c11.56-6.65,23.12-13.29,34.68-19.94
		C271.93,104.32,259.93,97.33,247.93,90.35z"/>
	<path class="st16" d="M247.93,90.35c-7.34,4.08-14.69,8.16-22.03,12.24c7.78,9.55,15.57,19.1,23.35,28.64
		C248.81,117.61,248.37,103.98,247.93,90.35z"/>
	<path class="st17" d="M225.9,102.59c-4.43,2.49-8.85,4.98-13.28,7.47c12.21,7.06,24.42,14.12,36.63,21.18
		C241.47,121.69,233.69,112.14,225.9,102.59z"/>
	<path class="st18" d="M212.63,110.06c0.06,13.94,0.13,27.87,0.19,41.81c12.15-6.88,24.29-13.76,36.43-20.63
		C237.05,124.18,224.84,117.12,212.63,110.06z"/>
	<path class="st19" d="M212.63,110.06c-4.51,2.54-9.03,5.08-13.54,7.62c4.58,11.4,9.16,22.8,13.74,34.2
		C212.76,137.93,212.69,123.99,212.63,110.06z"/>
	<path class="st16" d="M199.08,117.67c-7.13,4.05-14.26,8.1-21.39,12.15c11.71,7.35,23.42,14.7,35.13,22.05
		C208.24,140.47,203.66,129.07,199.08,117.67z"/>
	<path class="st20" d="M151.87,144.65c-0.24,3.07-0.48,6.14-0.71,9.22c9.03,5.93,18.05,11.87,27.08,17.8
		c-0.18-13.95-0.36-27.89-0.54-41.84C169.08,134.76,160.48,139.71,151.87,144.65z"/>
	<path class="st21" d="M94.81,178.65c7.01,9.59,14.03,19.18,21.04,28.78c3.58-2,7.15-3.99,10.73-5.99
		C115.99,193.84,105.4,186.24,94.81,178.65z"/>
	<path class="st19" d="M151.87,144.65c-2.5,1.46-5.01,2.92-7.51,4.37c2.27,1.61,4.53,3.23,6.8,4.84
		C151.39,150.79,151.63,147.72,151.87,144.65z"/>
	<path class="st22" d="M117.58,165.07c-7.66,4.47-15.33,8.95-22.99,13.42c8.32,5.88,16.64,11.77,24.96,17.65
		C118.9,185.79,118.24,175.43,117.58,165.07z"/>
	<path class="st16" d="M144.36,149.02c1.37,13.17,2.73,26.35,4.1,39.52c9.92-5.63,19.85-11.25,29.77-16.88
		C166.94,164.12,155.65,156.57,144.36,149.02z"/>
	<path class="st9" d="M126.58,201.44c5.52-3.16,11.03-6.33,16.55-9.49c-8.51-8.96-17.03-17.92-25.54-26.88
		c0.66,10.36,1.31,20.71,1.97,31.07C121.9,197.91,124.24,199.67,126.58,201.44z"/>
	<path class="st9" d="M135.26,154.29c-1.4,8.31-2.81,16.62-4.21,24.93c4.02,4.24,8.05,8.49,12.07,12.73
		c1.78-1.13,3.56-2.27,5.34-3.4C144.06,177.12,139.66,165.71,135.26,154.29z"/>
	<path class="st12" d="M144.36,149.02c-3.03,1.75-6.07,3.51-9.1,5.26c4.4,11.42,8.8,22.84,13.2,34.26
		C147.1,175.37,145.73,162.2,144.36,149.02z"/>
	<path class="st12" d="M135.26,154.29c-5.89,3.6-11.78,7.19-17.68,10.79c4.49,4.71,8.98,9.43,13.47,14.14
		C132.45,170.9,133.86,162.6,135.26,154.29z"/>
	<path class="st19" d="M177.69,129.82c0.18,13.95,0.36,27.89,0.54,41.84c11.53-6.6,23.06-13.2,34.59-19.79
		C201.11,144.52,189.4,137.17,177.69,129.82z"/>
	<path class="st23" d="M324.79,443.04l-3.7,15.1c-5.82-3.17-11.64-6.35-17.46-9.52c-3-1.63-5.99-3.27-8.99-4.9h0
		c-0.23-0.41-0.45-0.83-0.68-1.23c0,0,0.01-0.01,0.01-0.01c7.07-4.15,14.13-8.29,21.2-12.43L324.79,443.04z"/>
	<polygon class="st24" points="300.31,454.27 291.66,451.79 256.54,441.71 284.99,425.77 293.97,442.48 294.64,443.72 
		294.64,443.72 	"/>
	<polygon class="st25" points="284.99,425.77 311.45,432.23 293.96,442.48 	"/>
	<path class="st25" d="M303.63,448.62l-3.32,5.65l-5.67-10.55C297.64,445.35,300.63,446.99,303.63,448.62z"/>
	<polygon class="st26" points="291.66,451.79 283.53,461.19 255.6,442.27 256.54,441.71 	"/>
	<polygon class="st27" points="333.96,82.82 377.03,71.28 369.31,102.74 358.27,82.8 	"/>
	<polygon class="st18" points="333.96,82.82 314.04,93.74 358.27,82.8 	"/>
	<polygon class="st20" points="358.27,82.8 350.79,125.64 365.28,117.51 369.31,102.74 	"/>
	<polygon class="st15" points="363.39,125.53 350.79,125.64 365.28,117.51 	"/>
	<polygon class="st1" points="314.04,93.74 350.79,125.64 358.27,82.8 	"/>
	<polygon class="st18" points="314.04,93.74 283.94,111.3 323.82,102.23 	"/>
	<polygon class="st20" points="350.79,125.64 315.63,145.7 324.41,102.74 	"/>
	<polygon class="st27" points="283.94,111.3 315.63,145.7 324.41,102.74 323.82,102.23 	"/>
	<polygon class="st28" points="281.79,126.8 315.63,145.7 283.94,111.3 	"/>
	<polygon class="st1" points="281.79,126.8 249.25,131.23 283.94,111.3 	"/>
	<polygon class="st15" points="274.85,169.09 315.63,145.7 281.79,126.8 	"/>
	<polygon class="st20" points="249.25,131.23 281.79,126.8 274.85,169.09 	"/>
	<polygon class="st20" points="236.92,152.34 249.25,131.23 212.82,151.87 	"/>
	<polygon class="st15" points="274.85,169.09 236.92,152.34 249.25,131.23 	"/>
	<polygon class="st18" points="232.17,193.14 274.85,169.09 236.92,152.34 	"/>
	<polygon class="st20" points="192.57,177.96 232.17,193.14 212.82,151.87 	"/>
	<polygon class="st12" points="178.23,171.66 212.82,151.87 192.57,177.96 	"/>
	<polygon class="st19" points="192.1,216.12 192.57,177.96 178.23,171.66 	"/>
	<polygon class="st12" points="192.1,216.12 232.17,193.14 192.57,177.96 	"/>
	<polygon class="st16" points="178.23,171.66 150.32,201.51 192.1,216.12 	"/>
	<polygon class="st20" points="148.46,188.54 150.32,201.51 178.23,171.66 	"/>
	<path class="st9" d="M193.48,220.05c-1.66,0.95-3.32,1.89-4.98,2.84l-29.41,16.74l-0.75-3.54l-6.51-30.61L193.48,220.05z"/>
	<path class="st11" d="M150.32,201.51l41.77,14.61l-3.4,2.26l-36.87-12.9l6.51,30.61c-0.48-0.8-0.96-1.6-1.43-2.4
		c-1.16-4.31-2.32-8.63-3.49-12.94c-0.98-4.67-1.96-9.34-2.93-14.01C150.43,204.99,150.38,203.25,150.32,201.51z"/>
	<polygon class="st9" points="158.34,236.08 115.18,221.78 148.46,188.54 150.32,201.51 150.48,206.74 153.42,220.75 156.9,233.69 	
		"/>
	<polygon class="st20" points="148.46,188.54 115.18,221.78 126.45,201.51 	"/>
	<polygon class="st28" points="126.45,201.51 90.67,235.66 115.85,207.42 	"/>
	<polygon class="st15" points="131.75,250.25 118.97,257.82 90.67,235.66 	"/>
	<polygon class="st27" points="131.75,250.25 90.67,235.66 126.45,201.51 115.18,221.78 	"/>
	<polygon class="st20" points="158.34,236.08 131.75,250.25 115.18,221.78 	"/>
	<polygon class="st19" points="212.82,151.87 236.92,152.34 232.17,193.14 	"/>
	<path class="st18" d="M384.42,158.98c-1.31,3.24-2.62,6.47-3.93,9.7c-4.09-7.29-8.89-15.09-14.52-23.17
		c-5.12-7.35-10.24-13.96-15.19-19.86c4.2-0.03,8.4-0.07,12.6-0.11c6.25,9.18,12.5,18.35,18.76,27.53
		C382.91,155.03,383.67,157,384.42,158.98z"/>
	<polygon class="st27" points="361.83,145.5 315.63,145.7 350.79,125.64 	"/>
	<path class="st18" d="M361.83,145.5l-18.04,44.25c-3.8-6.97-8.06-14.27-12.84-21.79c-5.13-8.06-10.28-15.48-15.32-22.26
		L361.83,145.5z"/>
	<path class="st20" d="M343.79,189.75c-9.58-5.7-19.16-11.4-28.74-17.1c0.19-8.98,0.38-17.96,0.58-26.95
		c5.04,6.78,10.19,14.19,15.32,22.26C335.74,175.48,340,182.77,343.79,189.75z"/>
	<path class="st1" d="M315.63,145.7c-0.19,8.98-0.39,17.97-0.58,26.95l-40.2-3.55C288.44,161.3,302.04,153.5,315.63,145.7z"/>
	<path class="st29" d="M343.79,189.75c-14.07,8.04-28.13,16.09-42.2,24.13l13.45-41.23C324.63,178.35,334.21,184.05,343.79,189.75z"
		/>
	<polygon class="st20" points="274.85,169.09 301.6,213.88 315.05,172.65 	"/>
	<polygon class="st15" points="264.65,201.36 301.6,213.88 274.85,169.09 	"/>
	<polygon class="st20" points="232.17,193.14 264.65,201.36 274.85,169.09 	"/>
	<polygon class="st30" points="301.6,213.88 257.88,238.99 257.45,239.24 264.65,201.36 	"/>
	<polygon class="st31" points="232.17,193.14 257.46,239.24 264.65,201.36 	"/>
	<polygon class="st29" points="257.45,239.24 253.5,238.31 253.15,238.23 252.97,238.19 219.72,230.39 215.32,229.36 233.11,194.84 
			"/>
	<polygon class="st19" points="215.32,229.36 193.35,215.4 232.17,193.14 233.11,194.84 	"/>
	<path class="st32" d="M252.97,238.19l-32.9,23.27c-0.12-10.36-0.23-20.71-0.35-31.07L252.97,238.19z"/>
	<line class="st5" x1="220.07" y1="261.46" x2="220.07" y2="261.46"/>
	<polygon class="st33" points="252.97,238.19 245.77,280.7 214.66,265.29 220.07,261.46 220.07,261.46 	"/>
	<path class="st34" d="M188.5,222.89l-19.38,33l46.73,7.02c-3.12-6.38-5.58-11.66-7.26-15.34c-3.69-8.07-5.14-11.68-8.25-17.08
		c-2.63-4.56-5.13-8.11-6.85-10.43C191.82,220.99,190.16,221.94,188.5,222.89z"/>
	<polygon class="st35" points="188.5,222.89 169.12,255.88 159.09,239.63 	"/>
	<polygon class="st26" points="215.85,262.91 179.73,283.4 169.12,255.88 	"/>
	<path class="st36" d="M179.73,283.4c-7.08-13.5-12.42-23.92-14.96-29.05c-0.07-0.15,0.03,0.05-3.23-7.15
		c-1.3-2.88-2.22-4.9-2.78-7.79c-0.27-1.36-0.37-2.52-0.42-3.32l0.75,3.54l10.03,16.26L179.73,283.4z"/>
	<path class="st37" d="M179.73,283.4l-24.45-2.7l-21.57-7.14c8.21-12.49,16.42-24.98,24.63-37.46c0.05,0.8,0.16,1.96,0.42,3.32
		c0.56,2.89,1.48,4.91,2.78,7.79c3.26,7.2,3.15,7,3.23,7.15C167.31,259.48,172.64,269.9,179.73,283.4z"/>
	<path class="st1" d="M380.49,168.68l-18.66-23.18l-11.04-19.85c4.95,5.91,10.07,12.52,15.19,19.86
		C371.61,153.59,376.41,161.39,380.49,168.68z"/>
	<polygon class="st38" points="380.49,168.68 343.79,189.75 361.83,145.5 	"/>
	<polygon class="st39" points="384.42,158.98 380.49,168.68 386.63,165.7 	"/>
	<polygon class="st40" points="386.63,165.7 380.49,168.68 387.49,170.42 	"/>
	<polygon class="st41" points="387.49,170.42 389.7,198.67 380.49,168.68 	"/>
	<polygon class="st42" points="389.7,198.67 380.49,168.68 343.79,189.75 	"/>
	<polygon class="st41" points="343.79,189.75 389.7,198.67 364.62,236.35 	"/>
	<polygon class="st43" points="343.79,225.2 343.79,189.75 364.62,236.35 	"/>
	<polygon class="st42" points="343.79,189.75 343.79,225.2 327.48,220.82 301.93,213.97 301.6,213.88 	"/>
	<polygon class="st41" points="324.84,259.44 364.62,236.35 343.79,225.2 	"/>
	<polygon class="st44" points="327.48,220.82 301.6,218.08 301.93,213.97 	"/>
	<polygon class="st43" points="326.97,255.59 301.6,218.08 327.48,220.82 343.79,225.2 	"/>
	<polygon class="st45" points="324.84,259.44 326.97,255.59 310.3,230.95 	"/>
	<polygon class="st42" points="324.96,260.81 295.12,254.56 295.26,253.82 301.6,218.08 310.3,230.95 324.84,259.44 	"/>
	<path class="st41" d="M366.14,241.01c-0.18,0.08-0.35,0.17-0.53,0.25l-40.65,19.55l-0.12-1.37l39.78-23.09L366.14,241.01z"/>
	<polygon class="st46" points="363.5,281.57 365.61,241.26 324.96,260.81 	"/>
	<path class="st43" d="M375.68,280.17l-10.45-2.94l0.37-35.98c0.18-0.08,0.35-0.17,0.53-0.25c1.58,4.83,3.09,9.96,4.5,15.36
		C372.82,264.76,374.46,272.73,375.68,280.17z"/>
	<polygon class="st40" points="404.82,254.68 364.62,236.35 385.83,224.56 	"/>
	<path class="st45" d="M404.82,254.68c-0.6,0.53-1.2,1.05-1.81,1.58l-27.33,23.91c-1.23-7.44-2.87-15.41-5.05-23.81
		c-1.4-5.4-2.92-10.52-4.5-15.36l-1.51-4.65L404.82,254.68z"/>
	<path class="st45" d="M364.62,236.35c8.36-12.56,16.72-25.12,25.08-37.69c-1.34,3.64-2.55,6.5-3.39,8.39
		c-1.77,4.01-2.63,5.42-2.74,8.08c-0.1,2.49,0.51,4.77,0.71,5.47c0.46,1.66,1.06,3,1.55,3.94"/>
	<polygon class="st42" points="261.54,239.93 260.6,240.44 257.66,242.04 257.07,242.36 252.6,244.8 253.5,238.31 257.45,239.24 
		257.88,238.99 	"/>
	<polygon class="st43" points="301.93,213.97 301.6,218.08 295.26,253.82 260.6,240.44 261.54,239.93 257.88,238.99 301.6,213.88 	
		"/>
	<path class="st47" d="M295.26,253.82l-0.13,0.74v2.6l-9.95,28.65c-0.22-0.36-0.45-0.71-0.67-1.07
		c-8.95-14.23-17.89-28.47-26.84-42.7l2.94-1.6L295.26,253.82z"/>
	<polygon class="st48" points="295.12,257.16 325.42,263.1 284.97,286.39 	"/>
	<polygon class="st45" points="257.07,242.36 246.37,281.64 246.06,281.16 245.77,280.7 253.15,238.23 253.5,238.31 252.6,244.8 	
		"/>
	<path class="st41" d="M284.5,284.74l-38.73-1.64l0.29-1.95l0.31,0.48l10.7-39.28l0.59-0.32
		C266.61,256.27,275.55,270.51,284.5,284.74z"/>
	<polygon class="st49" points="403.39,264.28 375.68,280.17 403.02,256.26 	"/>
	<polygon class="st50" points="405.31,253.17 404.82,254.68 392.14,234.56 	"/>
	<path class="st51" d="M409.16,260.98l-5.77,3.29l-0.37-8.02c0.6-0.53,1.2-1.05,1.81-1.58l0.49-1.51c0.77,1.07,1.61,2.41,2.38,4.02
		C408.35,258.56,408.82,259.85,409.16,260.98z"/>
	<path class="st51" d="M407.91,268.97l-4.8,3.28c0.09-2.66,0.18-5.32,0.28-7.97C404.89,265.84,406.4,267.4,407.91,268.97z"/>
	<path class="st49" d="M409.23,264.64c-0.23,1.9-0.84,3.38-1.32,4.33c-1.51-1.57-3.02-3.13-4.52-4.69l5.77-3.29
		C409.31,261.9,409.41,263.16,409.23,264.64z"/>
	<path class="st52" d="M375.68,280.17l20.22,16.59c1.86-2.65,2-4.57,1.76-5.87c-0.58-3.03-3.52-3.91-4.2-7.66
		c-0.03-0.17-0.34-1.97,0.21-3.86c1.59-5.42,8.93-7.02,9.44-7.13c0.09-2.66,0.18-5.31,0.28-7.97L375.68,280.17z"/>
	<path class="st53" d="M376.52,317.34c5.1-2.25,10.2-4.5,15.3-6.75c-0.75-1.03-1.88-2.34-3.49-3.58c-2-1.55-3.96-2.38-5.31-2.84
		c2.17-0.67,4.91-1.76,7.82-3.56c2.07-1.28,3.75-2.63,5.07-3.85c-6.74-5.53-13.48-11.06-20.22-16.59
		C375.96,292.56,376.24,304.95,376.52,317.34z"/>
	<path class="st52" d="M376.6,321.89l-0.07-4.55l15.3-6.75c0.49,2.17,0.72,4.88-0.79,6.57c-1.46,1.63-3.44,1.06-5.12,2.42
		c-1.42,1.14-2.61,3.64-1.73,9.49c-0.66,0.77-1.32,1.54-1.98,2.31L376.6,321.89z"/>
	<polygon class="st54" points="383.98,334.31 382.19,331.37 384.17,329.07 	"/>
	<polygon class="st48" points="341.57,307.67 374.79,329.39 374.79,330.11 352.07,339.35 342.65,348.76 	"/>
	<polygon class="st54" points="354.12,352.19 363.57,351.65 352.07,339.35 	"/>
	<polygon class="st53" points="372.38,331.09 366.42,351.97 363.57,351.65 352.07,339.35 	"/>
	<polygon class="st52" points="373.63,330.59 374.58,348.47 368.52,351.97 366.42,351.97 372.38,331.09 	"/>
	<polygon class="st53" points="340.04,349.96 354.12,352.19 352.07,339.35 342.65,348.76 	"/>
	<path class="st48" d="M374.79,330.11l3.88,5.99l3.52-4.73l1.79,2.93c0.05,0.7,0.1,1.73,0.08,2.98c-0.03,2.58-0.05,3.97-0.52,5.34
		c-0.77,2.28-2.45,3.54-5.11,5.54c-1.18,0.89-2.74,2.03-5.1,2.87c-1.92,0.68-3.62,0.88-4.82,0.94c2.02-1.17,4.04-2.33,6.06-3.5
		l-0.95-17.89L374.79,330.11z"/>
	<polygon class="st55" points="307.91,326.93 341.57,307.67 342.65,348.76 	"/>
	<polygon class="st56" points="374.25,289.13 374.79,329.39 341.57,307.67 	"/>
	<polygon class="st48" points="363.74,286.01 341.57,307.67 374.25,289.13 	"/>
	<polygon class="st54" points="323.78,268.06 341.57,307.67 363.74,286.01 	"/>
	<polygon class="st48" points="283.04,291.33 323.78,268.06 320.65,310.13 	"/>
	<polygon class="st48" points="307.91,326.93 320.65,310.13 341.57,307.67 	"/>
	<path class="st54" d="M326.15,309.48c4.29-2.49,8.59-4.97,12.88-7.46l2.54,5.65C336.43,308.28,331.29,308.88,326.15,309.48z"/>
	<path class="st56" d="M326.15,309.48c4.29-2.49,8.59-4.97,12.88-7.46c-5.08-11.32-10.17-22.64-15.25-33.96l-3.14,42.06
		C322.48,309.91,324.32,309.7,326.15,309.48z"/>
	<polygon class="st41" points="204.74,273.25 205.03,319.09 246.15,302.64 	"/>
	<polygon class="st56" points="205.68,273.91 205.48,268.79 179.16,301.43 205,314.06 204.74,273.25 	"/>
	<polygon class="st57" points="224.31,287.14 214.52,271.46 244.01,289.49 244.01,301.13 	"/>
	<path class="st57" d="M237.94,305.92l5.94,7.27c0.01-3.22,0.03-6.44,0.04-9.67C241.93,304.33,239.93,305.12,237.94,305.92z"/>
	<polygon class="st41" points="243.88,313.19 282.76,291.26 244.01,289.49 244.01,301.13 246.15,302.64 243.92,303.53 	"/>
	<polygon class="st53" points="240.28,361.75 233.69,317.81 206.31,344.92 	"/>
	<polygon class="st57" points="202.14,319.33 232.81,318.68 213.54,337.76 	"/>
	<polygon class="st57" points="233.8,318.49 246.69,318.13 234.77,324.96 	"/>
	<polygon class="st48" points="239.49,356.48 243.71,319.84 234.77,324.96 	"/>
	<path class="st56" d="M275.53,350.51l-4.06,1.29c-2.84,0.9-5.69,1.8-8.53,2.71l0.2-10.83l-3.9,12.15l-18.96,5.93l-0.79-5.27v0
		l4.22-36.64l0.75-0.43c0.81,0.9,1.63,1.8,2.46,2.71c0,0,0,0.01,0.01,0.01c4.67,5.11,9.67,10.33,15.02,15.6
		c1.02,1,2.03,1.99,3.04,2.97c3.01,2.9,6,5.7,8.95,8.38L275.53,350.51z"/>
	<path class="st48" d="M342.65,348.76l-2.61,1.2c-0.63-0.12-1.65-0.32-2.89-0.6c-7.06-1.6-8.53-2.92-13.49-3.83
		c-3.94-0.72-7.39-1.3-9.86,0.75c-1.24,1.03-1.82,2.38-2.12,3.34c-2.22-2.05-4.43-4.1-6.65-6.15l-6.11-5.65l-2.88,0.7l0,0
		l-19.66,4.75l-3.39,0.82l2.49-4.44l2.8-4.99l4.06,0.08l31.53,0.64l-5.96-8.47L342.65,348.76z"/>
	<polygon class="st58" points="275.53,350.51 296.05,338.53 298.93,337.83 305.04,343.48 306.76,374.12 271.47,351.8 	"/>
	<polygon class="st53" points="296.05,338.53 296.04,338.53 275.53,350.51 273.95,349.08 276.38,343.28 	"/>
	<polygon class="st56" points="282.35,334.75 282.35,333.51 307.91,326.93 313.88,335.39 	"/>
	<polygon class="st53" points="307.91,326.93 282.76,291.26 281.94,302.06 285.8,299.76 282.35,333.51 	"/>
	<polygon class="st48" points="285.8,299.75 282.35,333.51 282.35,334.75 278.28,334.67 275.48,339.66 255.9,327.64 246.93,322.13 
		246.92,322.12 246.92,322.12 281.94,302.06 	"/>
	<path class="st58" d="M276.38,343.28l-2.43,5.8c-2.96-2.68-5.94-5.48-8.95-8.38c-3.03-4.35-6.06-8.7-9.1-13.06l19.58,12.02
		l-2.49,4.44L276.38,343.28z"/>
	<path class="st52" d="M265,340.69c-1.01-0.98-2.03-1.97-3.04-2.97c-5.35-5.27-10.36-10.49-15.02-15.6l8.97,5.51
		C258.93,331.99,261.96,336.34,265,340.69z"/>
	<polygon class="st55" points="282.76,291.26 307.91,326.93 320.65,310.13 	"/>
	<polygon class="st59" points="203.87,423.99 230.75,449.88 224.1,412.33 	"/>
	<polygon class="st60" points="224.6,415.18 242.54,409.27 229.58,419.42 	"/>
	<polygon class="st61" points="229.92,445.17 243.3,460.41 217.58,460.41 220.26,439.77 230.75,449.88 	"/>
	<polygon class="st34" points="260.61,383.9 264.69,387.29 274.63,372.79 	"/>
	<polygon class="st62" points="256.59,396.19 293.87,395.47 282.32,424.61 	"/>
	<polygon class="st63" points="210.91,401 231.58,395.8 221.51,409.51 	"/>
	<polygon class="st64" points="225.81,382.56 234.54,389.45 241.21,373.08 	"/>
	<polygon class="st48" points="199.47,392.81 222.16,388.8 228.69,384.84 226.29,382.94 	"/>
	<polygon class="st65" points="238.45,379.86 241.21,373.08 239.42,374.18 243.63,365.98 243.94,365.38 245.41,366.8 254.02,375.14 
			"/>
	<polygon class="st66" points="258.02,359.62 263.14,343.68 262.78,362.8 	"/>
	<polygon class="st63" points="261.79,362.13 250.05,368.96 245.41,366.8 243.94,365.38 243.63,365.98 241.14,364.82 258.02,359.62 
			"/>
	<polygon class="st67" points="229.38,385.38 223,397.96 231.58,395.8 227,402.04 240.49,401.68 234.54,389.45 	"/>
	<polygon class="st64" points="232.61,401.89 239.79,410.18 242.54,409.27 240.49,410.88 254.47,426.95 257.82,397.54 
		256.59,396.19 258.16,396.16 259.12,388.18 236.95,394.41 240.49,401.68 	"/>
	<polygon class="st68" points="244.12,415.05 249.09,444.53 277.13,423.84 256.03,413.23 254.47,426.95 	"/>
	<polygon class="st69" points="174.85,384.21 199.33,370.13 193.66,414.02 	"/>
	<polygon class="st70" points="184.86,400.06 175.59,427.04 205.02,425.1 203.87,423.99 215.75,417.14 196.04,395.61 193.66,414.02 
			"/>
	<path class="st65" d="M235.65,365.57c-2.26,1.39-4.53,2.78-6.79,4.17c-3.05,1.87-6.1,3.75-9.15,5.62
		c0.41-3.78,0.82-7.57,1.22-11.35c0.27-2.46,0.53-4.91,0.8-7.37L235.65,365.57z"/>
	<path class="st56" d="M196.95,388.53l2.37-18.4l-4.47,2.57l0.18-1.54l1.23-10.46l1.7-14.46l22.97,17.78
		c-0.41,3.78-0.82,7.57-1.22,11.35c3.05-1.87,6.1-3.75,9.15-5.62l6.49,4.9L196.95,388.53z"/>
	<polygon class="st43" points="186.08,371.66 185.24,372.14 161.47,385.65 136.87,376.76 155.8,374.79 	"/>
	<polygon class="st71" points="196.27,360.7 195.04,371.16 185.24,372.14 186.08,371.66 155.8,374.79 161.82,359.45 165.11,351.07 
		173.38,330 	"/>
	<polygon class="st69" points="174.15,306.92 159.31,344.5 156.4,351.87 151.74,335.73 147.74,321.92 	"/>
	<path class="st41" d="M173.03,298.08l20.94,22.21l10.77,17.89c-4.5-4.31-9.22-9.26-13.95-14.91
		C183.38,314.42,177.57,305.8,173.03,298.08z"/>
	<polygon class="st66" points="104.4,301.38 151.64,307.3 138.46,314.71 	"/>
	<polygon class="st40" points="131.41,335.27 116.57,379.53 118.09,342.95 	"/>
	<polygon class="st72" points="165.11,351.07 161.82,359.45 122.99,363.66 137.78,319.04 151.74,335.73 156.4,351.87 159.31,344.5 	
		"/>
	<polygon class="st71" points="112.87,390.9 161.47,385.65 149.57,392.53 	"/>
	<polygon class="st70" points="159.57,427.3 149.74,392.79 161.47,385.8 	"/>
	<polygon class="st73" points="118.4,259.71 126.77,256.89 116.72,272.21 99.04,291.26 	"/>
	<polygon class="st56" points="282.76,291.26 281.94,302.06 246.93,322.13 244.46,319.41 246.69,318.13 233.8,318.49 233.69,317.81 
		232.81,318.68 205.03,319.09 237.94,305.92 243.88,313.19 	"/>
</g>
</svg>
