<?xml version="1.0" encoding="utf-8"?>
<!-- Generator: Adobe Illustrator 25.2.0, SVG Export Plug-In . SVG Version: 6.00 Build 0)  -->
<svg version="1.1" id="Layer_1" xmlns="http://www.w3.org/2000/svg" xmlns:xlink="http://www.w3.org/1999/xlink" x="0px" y="0px"
	 viewBox="0 0 48 48" style="enable-background:new 0 0 48 48;" xml:space="preserve">
<style type="text/css">
	.st0{fill:#662D91;}
</style>
<path class="st0" d="M22.1,24.7c0.1,0.3-0.2,0.6-0.5,0.6h-2c-0.3,0-0.6-0.3-0.5-0.6l1.3-5.1c0.1-0.5,0.2-1,0.2-1.5h0.1
	c0,0.6,0.1,1.1,0.2,1.5L22.1,24.7z"/>
<path class="st0" d="M36,6H12c-3.3,0-6,2.7-6,6v24c0,3.3,2.7,6,6,6h24c3.3,0,6-2.7,6-6V12C42,8.7,39.3,6,36,6z M26.3,32h-2.1
	c-0.2,0-0.4-0.2-0.5-0.4l-0.7-3c-0.1-0.2-0.3-0.4-0.5-0.4h-3.8c-0.2,0-0.4,0.2-0.5,0.4l-0.7,3c0,0.2-0.2,0.4-0.5,0.4h-2.1
	c-0.3,0-0.6-0.3-0.5-0.6l4.4-15.9c0.1-0.2,0.3-0.4,0.5-0.4H22c0.2,0,0.4,0.2,0.5,0.4l4.3,16C26.9,31.7,26.7,32,26.3,32z M31.8,31.5
	c0,0.3-0.2,0.5-0.5,0.5h-1.9c-0.3,0-0.5-0.2-0.5-0.5V20.4c0-0.3,0.2-0.5,0.5-0.5h1.9c0.3,0,0.5,0.2,0.5,0.5V31.5z M31.5,17.4
	c-0.3,0.4-0.7,0.5-1.2,0.5c-0.5,0-0.9-0.2-1.2-0.6c-0.3-0.4-0.5-0.8-0.5-1.4c0-0.6,0.2-1,0.5-1.4c0.3-0.4,0.7-0.5,1.2-0.5
	c0.5,0,0.9,0.2,1.2,0.5C31.8,15,32,15.5,32,16S31.8,17.1,31.5,17.4z"/>
</svg>
