<?xml version="1.0" encoding="utf-8"?>
<!-- Generator: Adobe Illustrator 25.2.0, SVG Export Plug-In . SVG Version: 6.00 Build 0)  -->
<svg version="1.1" id="Layer_1" xmlns="http://www.w3.org/2000/svg" xmlns:xlink="http://www.w3.org/1999/xlink" x="0px" y="0px"
	 viewBox="0 0 48 48" style="enable-background:new 0 0 48 48;" xml:space="preserve">
<style type="text/css">
	.st0{fill:#662D91;}
	.st1{fill:#422060;}
</style>
<path class="st0" d="M36.9,7.3c1.8,0.5,3.1,2.2,3.1,4.1v25.2c0,1.9-1.3,3.6-3.2,4.1l-11.5,3.2L29,36V11l-3.1-6.9L36.9,7.3z"/>
<path class="st1" d="M29,35v3.9c0,3.8-3.8,6.2-7,4.5L15,39c-0.8-0.5-1.2-1.5-1-2.5c0.3-0.9,1.1-1.5,2-1.5H29z"/>
<path class="st1" d="M15.5,32.2l-3.4,1.5C10.7,34.5,9,33.5,9,31.9v-17c0-1.5,0.8-2.9,2.1-3.7l11.8-6.7C25.7,3,29,5,29,8.2v3.1
	l-10,3.5c-1.2,0.5-2,1.6-2,2.9v11.7C17,30.6,16.4,31.7,15.5,32.2z"/>
</svg>
