<?xml version="1.0" encoding="utf-8"?>
<!-- Generator: Adobe Illustrator 25.2.0, SVG Export Plug-In . SVG Version: 6.00 Build 0)  -->
<svg version="1.1" id="Layer_1" xmlns="http://www.w3.org/2000/svg" xmlns:xlink="http://www.w3.org/1999/xlink" x="0px" y="0px"
	 viewBox="0 0 278.51 278.51" style="enable-background:new 0 0 278.51 278.51;" xml:space="preserve">
<style type="text/css">
	.st0{fill:#FFFFFF;}
	.st1{fill:#662D91;}
</style>
<g>
	<path class="st0" d="M215.98,94.31c-0.04-6.05-0.66-12.18-1.86-18.1c-2.28-11.3-7.3-21.47-14.47-30.52
		C189.19,32.46,175.92,23.36,159.6,19c-5.07-1.36-10.35-1.93-15.53-2.87h-10.1c-2.05,0.31-4.1,0.61-6.16,0.92
		c-16.78,2.57-31.23,9.86-43.11,21.94c-15.25,15.5-22.3,34.4-22.3,56.04c0,29.41-0.01,58.82,0.01,88.23
		c0.01,12.9,2.28,25.33,8.33,36.86c10.46,19.95,26.39,33.34,48.19,39.36c5.05,1.39,10.34,1.96,15.52,2.9h10.1
		c2.13-0.31,4.26-0.62,6.39-0.94c14.71-2.26,27.7-8.29,38.79-18.17c17.63-15.7,26.29-35.49,26.31-59.06
		C216.08,154.24,216.16,124.27,215.98,94.31z M142.35,25.19c4.6,0.75,9.06,1.1,13.31,2.22c16.23,4.27,29.35,13.2,38.99,27.02
		c7.96,11.41,12.05,24.09,12.02,38.02c0,0.79-0.72,1.95-1.43,2.32c-16.23,8.42-33.5,13.37-51.68,15.15
		c-3.64,0.36-7.29,0.52-11.25,0.8v-2.91c0-6.89,0.04-13.77-0.03-20.66c-0.01-1.49,0.36-2.22,1.88-2.75
		c5.75-2.01,9.49-7.27,9.56-13.37c0.07-6.48,0.06-12.97-0.03-19.46c-0.09-6.24-3.62-11.21-9.5-13.41c-1.31-0.49-1.92-1.04-1.87-2.53
		C142.43,32.37,142.35,29.1,142.35,25.19z M147.48,51.55c0.11,6.57,0.1,13.14-0.04,19.7c-0.1,4.66-3.66,7.92-8.25,7.89
		c-4.37-0.02-7.86-3.39-8.14-7.83c-0.01-0.24-0.03-0.48-0.03-0.72v-9.37h0.06c0-3.2-0.07-6.41,0.01-9.61
		c0.13-4.66,3.58-8.09,8.05-8.15C143.76,43.41,147.4,46.81,147.48,51.55z M89.51,47.39c12.25-13.3,27.5-20.65,45.62-21.79
		c0.23-0.01,0.47,0.07,1.08,0.18c0,3.6,0.05,7.26-0.06,10.91c-0.01,0.46-0.81,1.07-1.38,1.3c-6.72,2.76-9.91,7.4-9.95,14.62
		c-0.02,5.85-0.05,11.7-0.02,17.55c0.03,7.01,3.38,11.83,9.83,14.47c0.64,0.26,1.47,1.13,1.48,1.72c0.08,7.77,0.04,15.55,0.01,23.32
		c0,0.22-0.15,0.44-0.36,0.99c-4.14-0.27-8.37-0.38-12.57-0.86c-17.41-2-33.98-6.88-49.66-14.76c-1.32-0.66-1.84-1.39-1.8-2.91
		C72.17,75.02,77.91,59.98,89.51,47.39z M206.82,105.68c-0.02,26.12-0.07,52.24-0.04,78.35c0.01,9.23-1.36,18.17-4.92,26.72
		c-7.35,17.65-19.79,30.35-37.53,37.44c-19.04,7.61-38.03,6.73-56.18-2.77c-18.37-9.62-29.96-24.86-34.75-45.12
		c-1.88-7.95-1.68-16.05-1.68-24.14c0.02-24.12,0.03-48.23,0.05-72.35v-2.56c45.01,20.8,89.84,20.87,135.04-0.05V105.68z"/>
	<path class="st1" d="M147.44,71.25c-0.1,4.66-3.66,7.92-8.25,7.89c-4.37-0.02-7.86-3.39-8.14-7.83c-0.01-0.24-0.03-0.48-0.03-0.72
		v-9.37h0.06c0-3.2-0.07-6.41,0.01-9.61c0.13-4.66,3.58-8.09,8.05-8.15c4.62-0.05,8.27,3.35,8.34,8.09
		C147.59,58.11,147.58,64.69,147.44,71.25z"/>
</g>
</svg>
