<?xml version="1.0" encoding="utf-8"?>
<!-- Generator: Adobe Illustrator 25.2.0, SVG Export Plug-In . SVG Version: 6.00 Build 0)  -->
<svg version="1.1" id="Layer_1" xmlns="http://www.w3.org/2000/svg" xmlns:xlink="http://www.w3.org/1999/xlink" x="0px" y="0px"
	 viewBox="0 0 48 48" style="enable-background:new 0 0 48 48;" xml:space="preserve">
<style type="text/css">
	.st0{fill:#662D91;}
</style>
<path class="st0" d="M21.9,20.4c0,1.8-1,3-3.2,3c-0.3,0-1.5,0-1.5,0v-5.9c0,0,0.8-0.1,1.7-0.1C20.9,17.5,21.9,18.8,21.9,20.4z"/>
<path class="st0" d="M36,6H12c-3.3,0-6,2.7-6,6v24c0,3.3,2.7,6,6,6h24c3.3,0,6-2.7,6-6V12C42,8.7,39.3,6,36,6z M18.4,25.9h-1.2v5.9
	c0,0.1-0.1,0.2-0.2,0.2h-2.3c-0.1,0-0.2-0.1-0.2-0.2V15.4c0-0.1,0.1-0.2,0.2-0.2c0.4,0,1.5-0.1,3.9-0.1c3.6,0,6.1,1.4,6.1,5.3
	C24.7,23.9,22.3,25.9,18.4,25.9z M29.5,32.2c-1.3,0-2.5-0.3-3.2-0.7c-0.1-0.1-0.1-0.2-0.1-0.2V29c0-0.1,0.1-0.1,0.2-0.1
	c0.5,0.3,1.5,0.9,3.1,0.9c1,0,1.7-0.4,1.7-1.2c0-0.8-1.1-1.4-2-1.9c-0.9-0.5-2.9-1.3-2.9-3.8c0-2.2,1.8-3.6,4.2-3.6
	c0.9,0,2,0.1,2.7,0.4c0.1,0,0.2,0.2,0.2,0.3v2.3c0,0.1-0.1,0.1-0.2,0.1c-0.4-0.3-1.4-0.7-2.7-0.7c-1.1,0-1.6,0.5-1.6,1.1
	c0,1,1.3,1.4,2.4,2.1c1.8,1,2.6,2,2.6,3.5C33.8,30.8,32,32.2,29.5,32.2z"/>
</svg>
