<?xml version="1.0" encoding="utf-8"?>
<!-- Generator: Adobe Illustrator 25.2.0, SVG Export Plug-In . SVG Version: 6.00 Build 0)  -->
<svg version="1.1" id="Layer_1" xmlns="http://www.w3.org/2000/svg" xmlns:xlink="http://www.w3.org/1999/xlink" x="0px" y="0px"
	 viewBox="0 0 500 500" style="enable-background:new 0 0 500 500;" xml:space="preserve">
<style type="text/css">
	.st0{fill:url(#SVGID_1_);}
</style>
<g id="Layer_1_1_">
	
		<linearGradient id="SVGID_1_" gradientUnits="userSpaceOnUse" x1="-464.4653" y1="268.5356" x2="25.495" y2="268.5356" gradientTransform="matrix(-1 0 0 -1 23.0547 502)">
		<stop  offset="0" style="stop-color:#2484C6"/>
		<stop  offset="1" style="stop-color:#FFC1AA;stop-opacity:0"/>
	</linearGradient>
	<path class="st0" d="M17.32,244.3c-0.96,5.68-4.18,6.94-8.88,3.44c-0.7-0.52-1.25-1.25-1.94-1.79c-0.89-0.7-1.78-1.49-2.8-1.94
		c-4.12-1.8-6.08-0.57-6.08,3.82c0.01,34.62,0.04,69.24,0.08,103.85c0,0.72,0.14,1.45,0.27,2.7c0.67-0.77,1.04-1.04,1.18-1.4
		c0.81-2.03,1.91-2.37,3.84-1.16c1.62,1.01,3.61,1.41,5.28,2.35c1.23,0.69,3.05,1.72,3.15,2.74c0.3,2.9-0.11,5.88-0.35,8.82
		c-0.07,0.94-0.74,1.87-0.71,2.78c0.09,2.8-1.26,4.58-3.75,5.35c-2.55,0.79-4.95-0.48-6.41-3.01c-0.67-1.15-1.3-2.33-2.3-4.14
		v132.57h3.53c0.1-0.31,0.19-0.62,0.27-0.94c1.13-4.43,1.7-9.03,5.41-12.32c0.41-0.36,0.85-1.26,0.67-1.61
		c-1.9-3.82,0.88-8.95-3.63-12.15c-1.96-1.39-0.24-3.44,0.48-5.03c0.25-0.54,1.82-1.14,2.02-0.94c0.96,0.97,1.7,2.16,2.42,3.33
		c0.39,0.64,0.43,1.57,0.93,2.06c1.79,1.78,2.41,4.88,5.69,5.03c0.4,0.02,0.74,0.91,1.13,1.37c1.04,1.25,1.94,2.66,3.15,3.7
		c3.14,2.69,5.13,5.72,4.21,10.09c-0.52,2.45-1.03,4.91-1.43,7.39h56.11c-0.13-0.2-0.26-0.39-0.41-0.58
		c-1.53-1.97-2.65-3.6-1.62-6.16c-0.27-0.08-0.55-0.16-0.82-0.24c0.66-1.2,1.04-2.78,2.05-3.5c1.7-1.22,3.72-2.26,5.75-2.7
		c2.32-0.51,4.21-1.12,5.84-3.06c1.54-1.83,3.54-3.51,5.68-4.53c2.89-1.39,4.55-0.24,5.28,2.84c0.14,0.59,0.31,1.22,0.63,1.72
		c1.23,1.96,0.89,3.76-0.14,5.71c-1.8,3.41-3.34,6.92-4.71,10.48h130.99c-0.25-0.26-0.52-0.52-0.79-0.77
		c-2.97-2.76-1.92-7.57,1.94-8.88c3.29-1.12,6.83,0.46,8.32,3.7c1.05,2.27,0.61,4.24-1.35,5.95h66.73c4.54-3,9.1-2.73,14.33-1.36
		c3.14,0.83,6.6,0.7,9.89,0.57c0.91-0.04,2.64-1.85,2.5-2.51c-0.53-2.36,0.7-3.18,2.24-4.47c2.1-1.76,5.24-2.55,6-5.81
		c0.08-0.35,1.44-0.53,2.22-0.58c1.3-0.1,2.6-0.03,4.61-0.03c-5.24-3.64-9.13,0.58-13.8,0.79c0.97-1.02,1.63-1.71,2.64-2.78
		c-2.33-0.29-4.14-0.67-5.95-0.69c-1.85-0.02-3.13-0.48-3.3-2.52c-0.15-1.78-0.35-3.42,2-4.26c1.51-0.54,2.72-1.88,4.07-2.87
		c-0.17-0.25-0.35-0.51-0.53-0.76c-0.81,0.22-1.63,0.43-3.04,0.8c0.21-2.23-0.96-4.59,2.55-4.58c0.46,0,1.32-0.66,1.32-1.02
		c0-2.23,1.18-3.51,2.52-5.26c2.59-3.39,5.68-5.89,9.16-8.03c5.89-3.62,11.87-7.08,17.8-10.63c2.18-1.3,4.18-3.13,6.53-3.89
		c2.56-0.83,4.1-2.44,5.5-4.44c0.13-0.17,0.1-0.46,0.15-0.74c-0.65,0.03-1.22,0.06-2.68,0.13c1.2-1.48,2.13-2.33,2.68-3.38
		c0.68-1.3,1.34-2.74,1.44-4.16c0.13-1.87-0.8-3.9-0.38-5.64c0.76-3.12,2.15-6.1,3.39-9.08c0.26-0.61,1.01-1.26,1.63-1.37
		c0.4-0.07,1.21,0.7,1.42,1.26c0.62,1.7,1.8,2.22,3.48,2.18c1.05-0.03,2.16-0.05,3.13,0.26c0.71,0.24,1.82,1.15,1.74,1.58
		c-0.44,2.29,1.21,4.95-1.22,6.94c-0.34,0.28-0.22,1.35-0.06,1.99c0.56,2.18,0.98,4.46,1.92,6.48c1.51,3.28,0.49,5.68-1.78,8.07
		c-1.48,1.55-2.64,3.41-3.94,5.13c0.16,0.12,0.31,0.23,0.47,0.34c1.3-0.75,2.6-1.49,3.89-2.24c0.19,0.25,0.39,0.5,0.58,0.74
		c-0.56,0.94-0.99,2-1.71,2.8c-1.38,1.51-1.58,3.11-1.14,5.05c0.22,0.95-0.06,2.08-0.34,3.07c-0.47,1.67-0.86,3.15,0.79,4.55
		c0.48,0.41,0.33,1.74,0.22,2.62c-0.17,1.46-1.23,3.27-0.69,4.29c1.71,3.27,0.06,5.48-1.82,7.57c-8.8,9.78-18.99,18-29.45,25.85
		h49.23c0.03-2.3-0.14-4.61-0.09-6.91c0.22,0.01,0.44,0.01,0.67,0.01c0.11,2.3,0.23,4.61,0.34,6.9h0.57
		c1.34-8.01-1.96-15.53-3.17-23.27c0.37-0.08,0.74-0.15,1.11-0.23c1.16,7.22,2.89,14.42,3.27,21.68c0.03,0.6,0.06,1.21,0.07,1.82
		h9.97c0.95-0.17,1.94-0.45,2.79-0.24c0.27,0.07,0.53,0.15,0.8,0.24h8.89c0.35-0.36,0.72-0.69,1.13-0.98
		c3.2-2.31,6.56-4.42,9.71-6.78c1.76-1.32,3.61-2.78,3.22-4.85c1.51-0.82,3.07-1.25,3.96-2.26c1.85-2.08,3.23-4.57,5-6.73
		c1.4-1.7,1.64-4.82,4.33-4.43c0.98-1.19,1.65-2.16,2.49-2.97c0.75-0.72,2.07-1.07,2.46-1.91c2.22-4.72,4.86-9.28,4.93-14.8
		c0.03-2.04,1.5-4.02,1.72-6.09c0.54-5.22-1.18-9.72-5.3-13.09c-1.93-1.58-4.04-2.95-6.07-4.4c0.06-0.15,0.12-0.3,0.19-0.45
		c2.31,0.8,4.62,1.6,7.64,2.65c-0.64-1.04-0.77-1.5-1.07-1.71c-4.23-2.83-8.46-5.67-12.77-8.37c-0.35-0.22-1.34,0.63-2.05,0.96
		c-0.81,0.36-2.24,1.14-2.36,0.98c-1.3-1.76-2.69-3.55-3.45-5.57c-0.85-2.24-0.97-4.74-1.61-7.08c-0.54-1.94-1.38-3.8-2.06-5.7
		c-0.92-2.56-0.77-4.77,1.87-6.37c0.75-0.46,1.15-1.49,1.73-2.23c0.86-1.09,1.59-2.8,2.65-3.06c1.15-0.27,1.44-0.6,1.82-1.55
		c1.21-3.09,2.7-6.08,3.8-9.2c0.87-2.46,1.57-5.04,1.89-7.63c0.25-2.06,0.73-3.35,3.19-2.94c0-0.92-0.04-1.61,0.01-2.29
		c0.11-1.55-0.26-3.45,0.5-4.58c1.85-2.73,4.21-5.12,6.4-7.61c0.56-0.63,1.61-1.07,1.79-1.76c1.17-4.73,2.31-9.49,3.18-14.28
		c0.66-3.59,0.88-7.24,1.33-10.86c0.06-0.5,0.28-0.99,0.49-1.46c1.2-2.7,2.87-5.25,4.35-7.68c3.41-5.57,2.54-11.27,2.47-17.05
		c-0.02-1.14-0.84-2.25-1.13-3.41c-0.8-3.1-3.76-5.9-1.64-9.4c1.69-2.8,1.9-5.75,1.78-8.89c-0.06-1.62,0.1-3.39,0.67-4.89
		c1.23-3.18,2.67-6.29,4.3-9.29c0.74-1.34,2.31-3.42,3.21-3.27c2.96,0.46,3.8-1.59,5.16-3.02c-1.2-2.01-2.23-3.93-3.45-5.73
		c-0.52-0.76-1.37-1.72-2.15-1.79c-4.61-0.41-6.05-2.67-5.65-7.27c0.31-3.5-0.78-7.1-0.99-10.67c-0.3-5-3.3-8.92-5.75-12.77
		c-1.96-3.06-5.75-5.01-8.85-7.27c-2.01-1.45-4.25-2.58-6.39-3.85c0.11-0.2,0.22-0.4,0.33-0.6c0.88,0.15,1.76,0.29,3.5,0.58
		c-1.81-4.24-3.02-8.1-5.03-11.48c-2.52-4.27-5.68-8.15-8.59-12.2c-2.04-2.84-4.54-5.34-8.01-6.04c-3.13-0.64-6.41-0.5-9.77-0.71
		c-2.46-2.38-5.15-5-7.85-7.61c-1.31-1.27-2.64-2.51-3.92-3.81c-2.64-2.67-5.07-4.41-8.13-0.91c-1.84,2.1-5.23,0.8-6.65-1.91
		c-0.94-1.79-2.3-3.49-3.84-4.8c-1.44-1.23-3.24-1.54-4.19,0.93c-0.54,1.4-1.6,1.85-3.15,1.71c-3.13-0.27-6.29-0.2-9.41-0.56
		c-1.17-0.14-2.65-0.77-3.32-1.67c-2.46-3.29-8.64-4.44-11.78-1.94c-2.22,1.76-3.29,1.59-4.78-0.7c-0.89-1.37-1.79-1.94-3.66-1.14
		c-1.21,0.52-2.97-0.25-4.82-0.49c0.73-1.09,1.06-1.58,1.37-2.05c-3.8-3.67-4.52-3.73-9.07-3.34c-1.97,0.17-4.02-0.7-6.04-1.09
		c0.04-0.25,0.08-0.5,0.13-0.75c0.38-0.06,0.76-0.21,1.14-0.19c2.7,0.2,5.4,0.61,8.1,0.56c1.26-0.03,3.04-0.6,3.64-1.53
		c1.39-2.14,2.16-4.66,3.26-6.99c0.32-0.68,0.84-1.33,1.41-1.83c2.36-2.07,2.4-3.12,0.99-5.9c-1.37-2.73-3.53-2.62-6.01-2.51
		c-1.95,0.09-3.93-0.23-5.87-0.57c-2.23-0.4-4.5-1.65-6.59-1.36c-2.31,0.33-4.35,0.47-6.63-0.15c-2.76-0.75-4.58-2.09-5.72-4.81
		c-1.05-2.52-2.37-5.07-4.11-7.14c-1.95-2.31-3.14-4.55-2.54-7.6c0.18-0.94,0.02-1.94,0.02-2.9c0.01-1.75-0.77-3.04-2.58-3.02
		c-2.14,0.03-4.29,0.63-6.42,0.58c-1.13-0.03-2.64-0.64-3.21-1.5c-0.45-0.68,0.23-2.15,0.5-3.25c0.08-0.34,0.49-0.6,0.67-0.81
		c-3.09-4.69-7.6-5.96-12.64-6.16c-0.78-0.03-1.66-0.05-2.32-0.39c-4.28-2.18-7.93-1.31-11.23,2c-3.05,3.06-7.21,3.93-11.11,5.09
		c-3.08,0.91-6.04-0.29-8.03-2.77c-1.61-2.02-2.92-0.34-4.17,0.06c-0.75,0.24-1.78,2.06-1.53,2.51c1.85,3.22,1.15,6.71,1.41,10.08
		c0.06,0.87-0.06,2.36-0.5,2.52c-0.84,0.32-2.1,0.17-2.95-0.26c-1.73-0.89-3.23-0.95-4.97,0.03c-2.54,1.43-5.29,1.5-7.79-0.05
		c-3.23-1.99-6.65-1.79-9.93-0.76c-3.22,1.02-6.18,0.58-9.26-0.21c-1.06-0.27-2.43-0.6-3.29-0.17c-3.48,1.73-6.32,1.24-9.08-1.5
		c-1.55-1.53-3.53-0.72-4.36,1.27c-0.37,0.9-1.05,1.75-1.79,2.38c-1.06,0.9-2.27,1.67-3.49,2.35c-0.9,0.51-2.47,1.36-2.81,1.05
		c-0.93-0.85-1.49-2.19-1.97-3.43c-0.45-1.17-0.32-2.65-0.97-3.66c-2.23-3.43-4.82-6.62-7.03-10.06c-1.96-3.06-3.99-4.17-7.2-2.52
		c-3.55,1.81-6.56,4.84-11.03,4.36c-0.35-0.04-0.74,0.46-1.15,0.61c-2.55,0.9-5.11,1.78-7.65,2.65c-0.13-0.31-0.27-0.47-0.25-0.61
		c0.02-0.25,0.05-0.58,0.22-0.74c2.22-2.07,2.28-4.12,0.24-6.43c-0.29-0.33,0.34-1.75,0.86-2.43c0.77-1,2.41-1.68,2.61-2.7
		c0.47-2.37,2.19-3.36,3.88-4.36c2.31-1.39,4.77-2.55,7.24-3.65c0.62-0.28,1.51,0.09,2.28,0.11c1.1,0.03,2.2-0.06,3.29,0.01
		c1.58,0.1,3.62-0.27,4.63,0.57c1.94,1.61,3.73,1.4,5.64,0.67c2.42-0.93,4.88-1.89,7.06-3.25c3.23-2.02,6.1-1.17,9.22,0.16
		c1.88,0.8,4.01,1.22,6.06,1.33c3.34,0.18,3.49-0.2,2.27-3.4c-0.15-0.41-0.29-0.83-0.4-1.25c-0.82-3.03-0.36-3.64,2.72-3.75
		c1.06-0.04,2.12-0.21,3.18-0.32c0.18-0.33,0.37-0.66,0.56-0.99c-0.56-0.25-1.14-0.45-1.65-0.77c-5.04-3.1-6.19-8.57-2.86-13.47
		c1.58-2.33,1.23-3.72-1.41-4.75c-1.2-0.47-2.59-0.45-3.86-0.77c-1.9-0.47-3.76-1.15-5.68-1.51c-1.6-0.3-3.59-0.88-4.84-0.24
		c-1.84,0.95-3.32,2.75-4.7,4.4c-1.2,1.45-2.58,1.8-4.21,1.37c-3.56-0.91-6.83-1.24-10.69-0.12c-6.24,1.82-12.2,3.57-17.04,8.24
		c-2.92,2.82-3.68,5.1-1.87,8.74c1.24,2.49,0.87,4.4-1.5,5.82c-1.46,0.87-3.16,1.43-4.83,1.85c-1.91,0.48-3.29,1.22-4.12,3.21
		c-0.87,2.08-2.26,3.93-3.78,6.51c-0.3-2.18-0.05-3.75-0.72-4.59c-1.51-1.88-3.47-3.4-5.26-5.05c-2.77-2.55-6.43-1.53-7.68,2.08
		c-0.22,0.63-0.53,1.59-0.97,1.7c-2.6,0.65-5.25,1.54-7.86,1.5c-5.7-0.08-8.76-4.23-11.25-8.62c-0.65-1.15-0.53-3.11-0.06-4.45
		c0.89-2.54,1.91-5.21,3.59-7.24c1.87-2.27,3.78-4.98,7.27-5.19c5.61-0.34,12.22,3.74,14.74,8.85c0.45,0.91,2.18,2.17,2.61,1.94
		c1.63-0.87,3.58-2.04,4.21-3.59c0.49-1.19-0.78-3.13-1.34-4.7c-0.47-1.31-1.05-2.56-1.54-3.85c-0.32-0.85-0.33-2.29-0.88-2.51
		c-4.06-1.67-8.24-3.56-12.57-0.94c-6.2,3.75-12.43,2.74-18.7,0.38c-0.52-0.2-1.17-0.7-1.31-1.19c-1.04-3.8-4.02-5.71-6.99-7.79
		c-2.42-1.7-4.54-3.73-5.46-6.84c-0.38-1.28-1.6-2.62-2.8-3.31c-2.78-1.6-4.35-3.9-5.47-6.82c-0.49-1.27-1.65-2.37-2.72-3.29
		c-1.09-0.94-2.46-1.56-3.68-2.36c-0.94-0.61-1.77-1.63-2.78-1.85c-1.63-0.35-2.6-0.75-2.32-2.7c0.06-0.45-0.87-1.51-1.28-1.48
		c-0.7,0.05-1.52,0.62-1.97,1.21c-0.34,0.45-0.18,1.28-0.29,2.38c-1.28-0.7-2.38-1.08-3.19-1.81c-1.8-1.61-2.92-0.97-4.34,0.62
		c-1.03,1.16-2.52,2.17-4,2.62c-2.42,0.73-4.97,1.09-7.5,1.31c-1.04,0.09-2.15-0.59-3.23-0.92c0.47-0.97,0.72-2.13,1.43-2.88
		c1.43-1.54,3.16-2.8,4.64-4.29c0.45-0.45,0.93-1.52,0.7-1.9c-1.75-2.98-3.64-5.86-5.55-8.74c-0.2-0.3-0.77-0.35-1.18-0.49
		C52.31,9.41,51.24,9,50.14,8.77C46.09,7.9,42.11,6.14,38,9.06c-0.98,0.69-3.63,0.44-4.5-0.41c-2.95-2.9-5.54-6.19-8.07-9.47
		c-2.78-3.59-3.5-7.69-2.25-12.09c0.88-3.13,1.72-6.28,2.75-9.36c0.49-1.45,1.29-2.81,2.09-4.14c1.1-1.8,2.33-3.53,3.93-5.93
		c-6.59,0-12.29-0.05-17.98,0.06c-0.71,0.02-1.47,0.84-2.1,1.41c-2.67,2.37-5.33,4.78-7.94,7.21c-1.73,1.61-3.41,3.29-5.18,5.02
		c2.77,1.55,2.83,1.59,1.66,3.93c-2.04,4.06-2.87,8.24-2.85,12.86c0.14,36.24,0.1,72.35,0.1,108.47
		c0.01,22.73-0.03,45.45,0.06,68.18c0.01,1.32,0.72,2.78,1.5,3.92c1.29,1.91,1.07,3.51-0.17,5.3c-0.66,0.94-1.3,2.15-1.31,3.24
		c-0.1,13.92-0.02,27.84-0.12,41.75c-0.02,2.54,1.14,3.1,3.24,2.72c1.03-0.19,2-0.65,3.02-0.88c1.09-0.25,2.26-0.68,3.32-0.51
		C15.23,231.61,18.67,236.41,17.32,244.3z M444.95,227.5c0.02-0.22,0.04-0.44,0.06-0.67c0.79-0.04,1.65-0.3,2.35-0.06
		c0.58,0.2,0.97,0.96,1.44,1.48c-0.61-0.04-1.23-0.02-1.82-0.14C446.29,227.97,445.62,227.7,444.95,227.5z M404.83,193.7
		c-0.25-0.31-0.5-0.62-0.75-0.93c1.33-1.08,2.65-2.16,3.99-3.25C408.84,193.21,406.19,192.66,404.83,193.7z M419.43,365.81
		c0.83-0.68,2.25-0.65,3.4-0.93c-0.54,1.75-1.18,2.8-1.92,3.76c-0.79,1.01-1.68,1.94-2.82,3.25
		C416.84,369.06,417.76,367.18,419.43,365.81z M421.14,363.22c1.38-2.25,2.55-4.21,3.81-6.12c0.07-0.1,1.2,0.19,1.33,0.5
		C427.21,359.8,424.31,363.4,421.14,363.22z M442.79,447.7c1.39-0.32,2.29-0.77,3.13-0.67c3.36,0.43,6.71,0.97,10.03,1.63
		c0.48,0.1,0.79,1.08,1.18,1.66c-1.58,0.96-3.04,2.44-4.74,2.79C448.21,453.96,445.53,451.37,442.79,447.7z M436.15,470.72
		c3.57-3.87,7.29-5.06,10.2-3.22C443.33,469.85,439.89,470.18,436.15,470.72z M431.89,446.11c0.29-2.98,0.85-5.93,1.28-8.9
		c0.15-1.04,0-2.19,0.41-3.1c0.23-0.51,1.88-0.99,1.96-0.86c1.22,1.85,2.64,3.68,3.3,5.74c1.15,3.59,1.8,7.33,2.7,11.22
		c-0.2,0.12-0.79,0.46-1.52,0.88c0.8,0.49,1.36,0.84,1.92,1.18c-0.01,0.26-0.03,0.53-0.04,0.79c-0.76,0.1-1.73,0.54-2.25,0.23
		c-2.34-1.43-4.62-2.98-6.77-4.69C432.27,448.11,431.81,446.92,431.89,446.11z M408.2,468.8c0.32-0.87,0.51-1.51,0.8-2.11
		c0.95-1.95,2.85-3.92,2.76-5.81c-0.3-6.12,4.1-10.47,5.32-15.95c0.11-0.47,0.86-0.8,1.31-1.2c0.33-0.29,0.81-0.52,0.95-0.88
		c1.23-3.24,2.42-6.49,3.59-9.75c0.47-1.3,0.87-2.62,1.26-3.95c0.9-3.05,1.54-6.22,2.8-9.12c0.42-0.98,2.4-1.28,3.67-1.9
		c0.15,1.07,0.47,2.14,0.42,3.19c-0.07,1.77-0.37,3.53-0.62,5.71c1.97-0.98,3.21-1.6,4.46-2.23c0.2,0.31,0.41,0.62,0.61,0.93
		c-4.2,5.21-8.39,10.43-12.49,15.51c0.46,0.66,0.81,1.15,1.16,1.65c-0.99,0.15-1.97,0.29-2.94,0.43c2.17,3.13,2.12,3.78-0.68,6.92
		c0.45,0.6,0.9,1.2,1.79,2.38c-1.15,0.59-2.24,1.15-3.68,1.89c1.36,0.93,2.22,1.2,2.39,1.7c0.2,0.59,0,1.83-0.38,2
		c-2.14,0.94-4.39,1.63-6.78,2.48c3.6,3.63,8.49,2.39,12.7,3.41c-0.01,0.32-0.01,0.64-0.01,0.96c-4.35,0.42-8.69,0.83-13.01,1.25
		C414.01,468.58,412.95,469.13,408.2,468.8z M380.1,388.33c0.72-0.52,1.45-1.05,2.4-1.73c0.25-0.57,0.42-1.92,1.13-2.32
		c2.4-1.34,5-2.32,7.5-3.47c0.91-0.42,1.78-0.94,3.26-1.73c-1.39-0.47-2.27-0.52-2.77-0.99c-0.58-0.53-0.9-1.41-1.11-2.19
		c-0.04-0.15,1.19-0.97,1.56-0.81c2.3,0.95,3.29-0.91,4.12-2.16c1.28-1.91,2.59-2.27,4.66-1.54c2.84,0.99,5.48,1,8.07-1.28
		c1.44-1.27,3.75-1.58,5.67-2.31c0.18,0.27,0.36,0.53,0.54,0.8c-1.27,1.18-2.42,2.56-3.85,3.48c-1.81,1.17-3.93,1.84-5.76,2.98
		c-1.02,0.63-1.72,1.78-2.56,2.7c0.11,0.25,0.23,0.5,0.34,0.75h6.31c0.07,0.26,0.14,0.52,0.21,0.78c-2.13,1.3-4.32,2.49-6.36,3.91
		c-3.59,2.49-7.03,5.2-10.64,7.64c-0.95,0.63-2.35,0.97-3.49,0.86c-2.43-0.24-4.85-0.73-7.2-1.4
		C381.35,390.05,380.77,389,380.1,388.33z M12.53,39.07c-0.94,0.92-1.88,1.85-3.15,3.09c-1.16-1.03-1.85-1.64-2.54-2.26
		c1.41-0.72,2.78-1.54,4.26-2.1C11.37,37.69,12.04,38.62,12.53,39.07z M19.15,61.46c-0.56,2.18-0.74,4.46-1.07,6.71
		c-0.22,1.45-0.42,2.9-0.67,4.64c-2.44-1.21-4.39-2.18-6.36-3.14c-1.99-0.97-2.56-2.58-2.56-4.74c0-3.26,2.45-4.83,4.19-6.98
		c1.41-1.75,3.16-2.13,4.9-1.26C19.43,57.61,19.66,59.42,19.15,61.46z M79.03,85.47c-0.65,2.14-1.65,4.18-2.33,6.31
		c-0.23,0.71-0.21,1.81,0.2,2.37c1.1,1.53,0.59,1.99-0.96,2.6c-0.94,0.36-1.77,1.36-2.33,2.27c-0.58,0.94-0.99,2.1-1.08,3.19
		c-0.13,1.57-0.34,3.38,0.28,4.72c1.09,2.34,0.78,3.87-1.15,5.53c-1.68,1.44-2.91,3.38-4.55,4.86c-1.12,1-2.55,1.98-3.98,2.26
		c-2.57,0.5-5.25,0.45-8.68,0.69c-3.23-0.03-5.15-1.89-4.05-4.73c1.65-4.24,1.34-4.85-3.04-6.14c-5.62-1.64-8.85-9.81-5.95-14.91
		c0.26-0.46,0.13-1.14,0.22-1.71c0.69-4,1.34-6.85,6.85-6.87c1.5-0.01,2.99,0.04,4.48-0.01c2.02-0.06,4.11,0.13,6.03-0.36
		c4.06-1.02,8-2.54,12.05-3.6c1.75-0.45,3.68-0.54,5.47-0.34C78.99,81.87,79.74,83.11,79.03,85.47z M93.97,178.86
		c-0.94,3.04-2.65,3.69-5.83,2.18C90.36,180.21,91.96,179.61,93.97,178.86z M135.74,123.91c-1.78,2-4.02,3.63-5.61,5.76
		c-1.68,2.25-3.61,3-6.3,2.9c-2.89-0.11-3.05,0.51-2.92,3.53c0.13,3.23-0.2,6.49-0.33,9.73c-0.01,0.08-0.03,0.19-0.08,0.25
		c-1.5,1.99-2.37,4.55-5.16,5.34c-2.11,0.6-4.13,1.66-6.26,1.94c-1.5,0.19-3.26-0.32-4.66-1.02c-2.08-1.04-3.89-2.63-5.92-3.78
		c-1.85-1.05-3.38-1.81-1.62-4.36c0.68-0.98,0.25-2.72,0.3-4.11c0.04-1.04,0.15-2.1,0.03-3.13c-0.41-3.57-0.9-7.14-1.42-10.7
		c-0.05-0.38-0.44-0.8-0.79-1.03c-1.89-1.25-2.13-3.09-1.91-5.11c0.24-2.27,0.25-4.6,0.76-6.81c0.51-2.19,0.4-3.37-2.27-3.35
		c-1.28,0.01-2.94-1.45-1.52-2.21c2.51-1.33,4.54-3.07,6.78-4.65c1.39-0.98,3.78-0.52,5.95-0.73c-0.38,1.1-0.68,1.98-1.16,3.39
		c1.52,0.1,2.64,0.3,3.74,0.22c2.65-0.22,4.91,0.66,7.26,1.83c3.83,1.91,7.8,3.18,12.31,1.82c2.14-0.65,4.77-0.78,6.88-0.14
		C138.96,111.65,140.69,118.36,135.74,123.91z M157.76,239.08c4.57,1.72,10.43,0.68,13.48,5.87c0.12,0.21,0.45,0.29,0.62,0.48
		c2.27,2.58,5.6,4.51,5.25,8.12c0.05,3.19-1.44,5.13-3.35,5c-4.17-0.29-8.33-0.74-12.5-0.72c-2.85,0.01-5.68,0.79-8.54,1.03
		c-1.42,0.12-2.88-0.14-4.3-0.35c-1.2-0.17-2.36-0.61-3.55-0.76c-2.3-0.28-5.17-4.81-3.75-6.55c3.38-4.16,6.21-9.03,11.6-11.07
		C154.34,239.52,156.4,238.56,157.76,239.08z M186.64,151.71c-0.2,2.85-1.13,5.19-3.69,6.9c-2.96,1.98-6.01,3-9.62,3.06
		c-1.84,0.02-3.84,0.93-5.46,1.94c-2.26,1.41-4.69,1.75-6.82,0.13c-1.61-1.22-3.17-2.53-4.59-3.96c-2.44-2.46-2.42-3.99,0.06-6.45
		c5.57-5.51,12.44-6.64,19.75-5.17c2.03,0.41,3.68,0.86,5.72,0.08C184.77,147.18,186.68,148.76,186.64,151.71z M284.56,162.7
		c-0.51,0.99-1.02,1.99-1.69,3.29c-0.45-1.08-0.73-1.76-1.01-2.43c-3.51,0.05-6.21,1.43-8.35,3.98c-0.65,0.77-1.26,1.58-1.89,2.36
		c-0.66,0.82-1.3,1.65-2.29,2.9c-2.04-0.78-3.18,0.81-3.98,2.88c-0.41,1.06-0.67,2.19-1.08,3.25c-0.72,1.87-1.06,4.15-2.36,5.48
		c-4.62,4.76-11,5.12-17.08,6.12c-1.78,0.29-3.58,0.51-5.37,0.71c-3.55,0.4-7.04,0.93-10.53-0.79c-2.07-1.02-4.45-1.46-6.74-1.95
		c-1.5-0.32-2.35-0.62-1.48-2.38c0.45-0.91,0.69-2,0.76-3.02c0.12-2.03,0.96-3.35,2.78-4.42c3.38-1.98,5.86-4.79,6.2-8.92
		c0.24-2.93-0.91-3.67-3.82-3.16c-1.23,0.21-2.7-0.16-3.88-0.69c-2.69-1.2-5.3-2.6-7.88-4.03c-2.42-1.34-5.66-1.86-5.86-5.64
		c-0.03-0.47-1.1-1.03-1.79-1.3c-2.84-1.12-5.75-2.09-8.59-3.23c-3.93-1.58-6.1-9.52-3.62-13.02c0.1-0.14,0.2-0.3,0.33-0.41
		c2.61-2.13,3.29-4.79,2.49-8.04c-0.74-2.97,1.43-4.39,3.45-5.92c1.82-1.38,3.11-0.14,4.55,0.62c3.34,1.76,6.78,1.61,10.17,0.32
		c2.78-1.05,5.48-2.29,8.16-3.58c2.45-1.18,4.19-0.11,5.87,1.52c2.87,2.8,2.82,6.25,2.14,9.77c-0.69,3.6-1.68,7.15-2.33,10.76
		c-0.67,3.71,4.57,7.89,8.24,6.8c2-0.6,4.05-1.13,6.11-1.43c6.05-0.88,7.59,0.18,9.19,6.02c0.05,0.17,0.07,0.35,0.15,0.5
		c1.43,2.78,1.52,5.42-0.14,8.25c-0.48,0.81-0.1,3.09,0.5,3.36c1.35,0.62,3.29,0.91,4.6,0.38c1.15-0.47,1.78-2.24,2.59-3.45
		c0.42-0.63,0.65-1.42,1.15-1.97c1.34-1.47,2.85-2.79,4.16-4.28c1.49-1.69,3.32-2.4,5.38-1.7c1.79,0.61,3.51,1.54,5.12,2.56
		c1.21,0.76,2.2,1.86,3.69,3.17C281.41,162.12,282.98,162.41,284.56,162.7z M199.72,232.73c-0.92-0.4-1.57-0.61-2.15-0.95
		c-0.72-0.41-1.4-0.93-2.09-1.4c0.51-0.66,0.95-1.37,1.53-1.96c1.28-1.28,2.73-2.41,3.93-3.77c4.01-4.54,9.45-5.87,14.99-5.77
		c3.88,0.07,7.46,2.24,10.33,5.18c2.14,2.19,4.43,4.26,6.8,6.19c0.67,0.54,1.91,0.64,2.84,0.53c1.78-0.21,3.52-0.78,5.29-1.06
		c2.11-0.34,4.24-0.54,6.65-0.84c0.03,0.05,0.2,0.47,0.24,0.89c0.31,2.8,0.39,5.64,0.94,8.38c0.32,1.56,2.56,3.2-1.02,3.71
		c-0.44,0.06-0.74,1.48-1.02,2.3c-0.34,1-0.44,2.09-0.89,3.02c-1.06,2.18-2.63,2.31-4.32,0.61s-3.5-2.75-6.12-1.62
		c-1.17,0.51-2.76,0.29-4.11,0.12c-4.34-0.53-8.66-1.32-13.01-1.74c-2.9-0.29-5.3-1.07-7.58-3.09c-1.86-1.65-3.95-3.63-7.25-1.67
		c-1.27,0.76-3.79-0.4-5.65-0.97c-0.31-0.09-0.44-1.71-0.19-2.47C198.22,235.15,199,234.07,199.72,232.73z M252.13,313.62
		c-1.25,0.69-1.87,2.54-2.49,3.47c-1.3-4.76-2.73-10.01-4.03-14.77c2.88,2.19,4.37,5.83,4.63,10.02c4.01-0.21,5.01,0.14,5.91,2.04
		c0.03,0.01,0.06,0.02,0.08,0.02c0.02,0.02,0.03,0.04,0.05,0.06c4.47,0.95,5.65,2.82,4.21,5.79c-1.3-1.79-2.76-3.79-4.21-5.79
		c-0.03-0.01-0.07-0.02-0.1-0.02c-0.01-0.02-0.02-0.04-0.03-0.06C254.77,314.04,253.05,313.11,252.13,313.62z M257.45,319.72
		c2.35,0.95,2.15,2.85,2.14,4.89c-1.51-1.15-3.03-2.31-4.75-3.61C255.28,320.59,255.32,318.86,257.45,319.72z M235.74,295.92
		c-2.42-1.69-5.63-2.45-8.6-3.05c-4.82-0.98-8.15,0.96-10.23,5.45c-0.73,1.59-1.28,3.26-1.92,4.89c-0.13-0.06-0.26-0.12-0.39-0.17
		c0.68-1.89,1.31-3.8,2.06-5.67c1.54-3.89,4.43-6.43,8.6-6.2c3.42,0.19,7.21,0.73,10.06,2.42c6.11,3.65,12.08,7.42,18.95,9.51
		c0.23,0.07,0.36,0.45,0.54,0.69c-1.27,0.14-2.44,0.03-3.32-0.53C246.56,300.14,240.61,299.32,235.74,295.92z M221.34,285.28
		c-0.97-0.4-1.95-0.8-2.93-1.2c0.16-0.35,0.39-1.03,0.47-1.02c1,0.22,1.99,0.53,2.98,0.83
		C221.69,284.36,221.52,284.82,221.34,285.28z M310.5,148.8c-3.98,3.45-7.74,6.68-11.46,9.96c-0.58,0.51-1.01,1.18-1.45,1.82
		c-0.52,0.73-0.98,1.5-1.46,2.25c-0.82-0.65-1.64-1.29-2.58-2.03c4.79-3.22,5.5-4.67,3.41-7.91c-0.93-1.44-2.67-2.5-4.25-3.34
		c-3.16-1.66-3.33-2.63-0.45-4.96c1.12-0.91,2.18-1,2.63,0.57c0.51,1.74,1.75,1.92,3.23,2.08C302.2,147.7,306.27,148.27,310.5,148.8
		z M306.9,166.09c0.78,3.55-1.22,4.18-3.3,4.73c-0.19-0.17-0.39-0.34-0.58-0.51C304.23,169.01,305.42,167.7,306.9,166.09z
		 M313.83,171.27c-1.15-0.22-2.3-0.44-3.45-0.66c0.04-0.41,0.07-0.81,0.11-1.22c0.99-0.05,2.01-0.22,2.97-0.04
		C313.7,169.4,313.71,170.6,313.83,171.27z M366.54,330.79c-0.92-0.76-1.83-1.52-3.17-2.62c0.88-0.3,2.03-0.87,2.16-0.69
		c0.67,0.9,1.08,2,1.59,3.04C366.93,330.61,366.73,330.7,366.54,330.79z M351.89,380.54c0.31-0.02,0.62-0.04,0.94-0.06
		c0.22,1.8,0.43,3.6,0.65,5.39c-0.31,0.04-0.61,0.08-0.93,0.12C352.33,384.17,352.11,382.35,351.89,380.54z M323.96,412.58
		c1.49-3.37,1.57-3.39,3.35-1.03C326.1,411.92,325.04,412.25,323.96,412.58z M319.83,407.82c0.1-0.11,0.2-0.21,0.3-0.32
		c0.96,0.48,1.98,0.87,2.85,1.47c0.32,0.22,0.3,0.94,0.43,1.43c-0.52,0.06-1.28,0.36-1.51,0.13
		C321.12,409.73,320.51,408.74,319.83,407.82z M299.5,322.09c-6.82-4.74-14.28-7.94-22.56-9.1c-0.99-0.14-1.91-0.79-2.86-1.21
		c0.71-0.74,1.21-1,1.54-0.87c1.32,0.53,2.53,1.48,3.89,1.75c6.83,1.34,13.19,3.87,19.1,7.45c8.28,5.03,13.53,11.94,12.91,22.21
		c-0.04,0.71,0.22,1.45,0.34,2.17c0.11-0.03,0.22-0.05,0.32-0.08c0.12-1.12,0.23-2.23,0.27-2.56c2.04-1.24,3.51-2.13,5.08-3.08
		c-0.71-0.98-1.15-1.59-2.15-2.97c3.32-0.05,5.95-0.23,8.58-0.11c4.55,0.21,9.07,0.55,13.31-1.68c1.76-0.92,2.48-1.99,1.45-4.01
		c-0.41-0.81-0.07-2-0.07-2.38c-0.63-1.32-1.04-2.14-1.41-2.97c-0.42-0.95-0.54-2.26-1.25-2.79c-1.33-0.98-3.47-1.13-4.42-2.31
		c-2-2.5-4.89-1.74-7.28-2.42c-2.8-0.8-5.49-1.11-6.92-4.07c-0.29-0.6-0.85-1.31-1.43-1.48c-2.77-0.84-5.64-1.36-8.38-2.28
		c-3.41-1.14-6.69-2.68-10.11-3.82c-3.02-1.02-6.2-2.58-9.22-2.41c-4.16,0.25-8.37-0.98-10.41-3.37c-2.7-3.15-4.96-2.72-8.08-2.33
		c-3.59,0.44-5.07-2.83-7.29-4.76c-2.81,0.83-5.3-0.1-6.31-3.1c-1.2-3.55-4.56-4.48-6.94-6.55c-1.26-1.09-3.22-1.41-4.88-2.01
		c-1.02-0.37-2.07-0.63-3.11-0.95c0.39-1.11,0.58-2.34,1.19-3.29c4.19-6.5,8.44-12.95,12.73-19.39c2.25-3.38,4.6-6.71,6.97-10.01
		c0.31-0.43,0.98-0.72,1.53-0.84c1.22-0.24,2.47-0.33,4.16-0.53c0.21,0.34,0.94,1.28,1.39,2.34c0.47,1.09,0.68,2.3,1.03,3.51
		c-0.85,0.33-1.64,0.63-2.43,0.93c0.04,0.22,0.08,0.44,0.12,0.66h3.6c-0.43,0.64-0.58,0.95-0.81,1.17
		c-2.81,2.73,1.54,6.01-0.65,8.85c-0.19,0.25,0.18,1.24,0.57,1.58c1.96,1.73,1.76,3.54,0.71,5.7c-1.47,3.05-1.12,6.14,1.04,7.23
		c2.61,1.31,2.92,2.64,1.18,4.84c-0.86,1.09-0.52,1.86,0.95,2.24c3,0.79,5.56-0.15,7.6-2.16c1.31-1.29,2.55-1.68,4.21-1.3
		c1.75,0.4,3.17,0.2,4.36-1.49c0.97-1.37,2.34-2.55,3.74-3.5c0.95-0.63,2.28-0.71,3.59-1.07v2.09c2.17,0.49,4.18,1.13,6.23,1.34
		c2.26,0.23,4.55,0.05,6.84,0.05c0.14-0.52,0.27-1.04,0.41-1.56c3.18,0.8,3.18,0.8,3.57-3.35c1.19,0,2.39,0.06,3.57-0.02
		c1.12-0.07,2.23-0.27,3.44-0.42c-0.11-0.77-0.22-1.49-0.31-2.09c1.53,1.28,2.96,2.54,4.46,3.71c1.03,0.8,2.33,1.08,1.6,3.1
		c-0.35,0.96,0.61,2.8,1.51,3.73c1.6,1.67,3.63,2.92,5.44,4.42c2.94,2.43,3.62,6.16,1.99,8.06c0.72,1.68,0.99,3.45,2.01,4.48
		c4.23,4.25,6.97,8.94,5.9,15.18c-0.03,0.17-0.04,0.36,0.01,0.53c0.93,3.01,1.16,6.45,5.11,7.46c1.59,0.41,3.27,0.95,4.56,1.89
		c3.18,2.33,6.65,4.53,7.37,8.95c0.11,0.68,0.57,1.31,0.87,1.96c0.54-0.82,0.45-1.53,0.66-2.15c0.22-0.67,0.71-1.25,1.08-1.87
		c0.55,0.57,1.4,1.04,1.6,1.71c0.65,2.22-0.07,3.9-2.25,4.99c-1.07,0.53-1.96,1.45-2.85,2.13c1.28,0.93,2.76,1.65,2.68,2.01
		c-0.25,1.07-0.91,2.24-1.78,2.93c-0.91,0.74-2.3,0.86-3.36,1.45c-1.1,0.63-2.06,1.51-3.07,2.28c0.15,0.39,0.31,0.77,0.46,1.15
		c1.55-0.19,3.11-0.31,4.65-0.59c1.25-0.22,2.32-0.12,2,1.43c-0.64,3.08-1.44,6.14-2.27,9.17c-0.68,2.49-1.59,4.9-2.25,7.39
		c-0.4,1.52-0.44,3.14-0.79,4.67c-0.19,0.8-0.72,1.51-1.1,2.26c-0.27-0.07-0.56-0.14-0.84-0.21c0.14-1.59,0.29-3.18,0.43-4.77
		c-0.28-0.05-0.56-0.1-0.84-0.15c-0.52,2.02-1.04,4.03-1.58,6.1c-0.72-0.69-1.31-1.25-1.86-1.78c-0.33,2.61-0.84,4.86-0.82,7.11
		c0.01,2.31-0.74,3.09-2.96,2.28c1.69,9.78,1.69,9.78,0.42,10.5c-0.08-0.83-0.1-1.61-0.25-2.36c-0.38-1.89-0.19-4.48-1.36-5.49
		c-2.99-2.59-0.45-4.63-0.01-6.92c0.42,0.71,0.85,1.42,1.24,2.08c0.66-1.53,1.32-2.92,1.86-4.34c0.75-1.96-0.17-2.32-2-1.9
		c0.07,0.96,0.14,1.8,0.23,2.9c-2.45-0.72-3.41,0.53-3.84,2.68c-0.27,1.35-0.77,2.68-1.3,3.96c-0.2,0.48-0.74,0.8-1.13,1.2
		c-0.34-0.45-0.82-0.85-1-1.35c-0.36-1.03-0.57-2.1-0.83-3.17c-0.29,0.01-0.57,0.02-0.85,0.03c-0.08,0.97-0.17,1.94-0.26,2.94
		c-3.36,0.81-0.59,4.6-2.99,6.55c-1.34,1.09,3.63,8.47,6,9.37c0.01-0.08,0.06-0.2,0.02-0.25c-0.24-0.36-0.47-0.75-0.78-1.05
		c-2.5-2.42-3.81-5.17-2.22-8.59c0.48-1.03,1.3-1.89,1.96-2.83c0.76,0.88,1.58,1.71,2.24,2.65c0.26,0.38,0.06,1.05,0.24,1.52
		c0.21,0.53,0.5,1.23,0.94,1.43c2.82,1.25,4.97,3.01,5.52,6.26c-0.63,0.19-1.15,0.34-1.77,0.53c0.62,0.9,1.11,1.61,1.57,2.28
		c-2,2.67-2,2.67-5.3,1.96c-0.64,2.31-1.29,4.64-1.93,6.98c-0.97-0.86-1.94-1.7-2.7-2.37c-1.49,1.48-2.61,2.59-4.12,4.1
		c-0.94-0.21-2.62-0.27-2.82-2.56c-0.04-0.45-0.92-1.25-1.26-1.18c-0.62,0.14-1.23,0.72-1.64,1.28c-0.19,0.26,0.09,0.87,0.19,1.51
		c-4.08-2.33-4.53-5.31-1.68-8.25c-0.69-1.58-1.62-3.02-1.94-4.59c-0.35-1.76-0.02-3.65-0.25-5.45c-0.11-0.86-0.81-1.64-1.25-2.46
		c-0.25,0.12-0.5,0.24-0.74,0.36v2.57c-1.81-1.23-4.62,0.77-5.49-2.49c-0.3,1.35-0.89,2.9-0.4,3.44c1.63,1.73,3.5,3.38,5.57,4.52
		c2.14,1.18,2.85,3.99,0.76,5.9c-2.91-3.66-4.95-8.18-9.78-10.62c0.32,0.95,0.5,1.48,0.5,1.5c-1.67-0.17-3.38-0.07-4.9-0.57
		c-2.11-0.68-4.88,0.04-6.11-2.78c-0.54-1.25-1.34-2.45-2.25-3.47c-1.45-1.6-0.44-2.09,0.73-3.23c1.61-1.57,2.82-3.63,3.88-5.65
		c1.64-3.13-1.36-3.99-3-5.48c-0.06-0.05-0.06-0.16-0.23-0.61c2.06-2.39,4.58-4.65,4.89-8.51c0.31-3.81,1.57-7.55,2.57-11.27
		c0.3-1.13,1.34-2.05,1.7-3.17c0.28-0.87,0.3-2.64-0.02-2.75c-1.66-0.59-1.35-1.77-1.38-3C310.52,335.49,307.39,327.58,299.5,322.09
		z M303.89,330.06c0.53,0.7,0.99,1.3,1.27,1.67c-0.79,0.85-1.42,1.52-2.19,2.34c-0.49-0.98-0.89-1.77-1.35-2.7
		C302.16,331.06,302.96,330.6,303.89,330.06z M253.71,425.73c0.26-0.87,0.39-1.75,0.77-2.5c1.7-3.36,4.98-4.05,8.24-4.74
		c2.95-0.63,4.22-3.84,2.63-6.42c-1-1.62-1.85-3.33-2.89-5.22c2.1-0.47,3.78-0.89,5.48-1.21c3.25-0.6,4.54,0.28,5.8,3.01
		c1.59,3.48,3.37,6.9,5.33,10.18c1.48,2.48,3.83,2.46,5.89,0.35c0.47-0.48,1.14-0.77,1.49-0.99c-0.73,3.73-1.43,7.31-2.07,10.55
		c-1.23,0.23-2.16,0.41-3.56,0.68c-1.83-1.34-5.29,0.05-6.43,3.11c-3.4-0.45-6.82-0.75-10.16-1.43c-1.62-0.34-3.88-1.04-4.47-2.25
		C258.42,426.14,256.27,425.98,253.71,425.73z M271,378.7c1.26,2.52,0.8,4.64-1.9,6.94c0.34-1.18,0.65-1.87,0.72-2.59
		c0.08-0.72-0.07-1.48-0.17-2.89c-0.79,1.15-1.19,1.73-1.75,2.54c-0.58-2.43-1.28-3.91-3.57-4.65c-2-0.65-3.62-2.57-6.56-0.6
		c4.05-6.59,6.74-7,13.42-2.77C269.85,376.39,269.85,376.39,271,378.7z M238.4,394.73c0.74-0.08,1.52-0.35,2.21-0.2
		c1.15,0.24,2.21,0.94,3.36,1.12c5.36,0.8,10.81,1.21,16.1,2.35c2.13,0.46,4.23,2.19,4.49,5.19c-1,0.07-1.77,0.13-2.53,0.19
		c-3.89,0.27-7.83,1.09-11.34-1.6c-0.31-0.24-1.31,0.42-2.37,0.8c-0.41-0.85-0.98-2.03-1.67-3.45c-0.53,0.79-0.94,1.4-1.5,2.23
		c-2-2.87-2-2.87-5.34-3.91c-0.33-0.1-0.82-0.24-0.9-0.48C238.65,396.25,238.56,395.48,238.4,394.73z M250.82,384.19
		c-2.04,1.24-6.09,0.25-7.75-1.53c-0.86-0.92-1.28-1.74-0.01-2.57c1.09-0.71,2.39-1.3,3.11,0.29c0.96,2.12,2.1,2.56,4.01,1.16
		c0.43-0.32,1.15-0.24,2.45-0.47C251.85,382.49,251.58,383.73,250.82,384.19z M237.04,344.56c1.7-1.48,3.15-3.29,4.52-5.1
		c2.86-3.78,5.65-7.62,8.33-11.53c0.88-1.27,1.36-2.81,2.13-4.44c4.21-0.21,6.14,1.96,7.17,6.55c1.54,6.92,3.72,13.7,5.81,20.48
		c0.27,0.89,1.57,1.46,2.42,2.18c-0.01-0.01-0.01-0.03-0.01-0.04c0.02,0.03,0.03,0.05,0.05,0.07c0.01,0.01,0.01,0.01,0.02,0.02
		c-1.09-2.97-2.18-5.94-3.28-8.92c2.33,3.4,4.17,6.96,6.18,10.43c2.23,3.85,4.45,7.72,6.97,11.37c1.65,2.4,3.78,4.45,5.72,6.65
		c0.07,0.05,0.15,0.1,0.23,0.14c0.06,0.05,0.12,0.11,0.18,0.15c4.75,2.08,9.43,4.59,14.92,2.15c-4.47,2.41-10.87,1.39-14.92-2.15
		c-0.08-0.03-0.15-0.07-0.23-0.1c-0.06-0.06-0.12-0.13-0.17-0.2c-0.51-0.31-1.05-0.59-1.49-0.98c-5.92-5.27-10.09-11.87-14.12-18.57
		c-0.02-0.01-0.03-0.02-0.04-0.04c0.07,0.82,0.11,1.65,0.25,2.46c0.43,2.54,1.21,5.06,1.26,7.6c0.05,2.5-1.26,3.29-3.79,2.68
		c-1.85-0.45-3.61-1.26-5.41-1.89c-1.23-0.43-2.51-1.23-3.71-1.15c-6.19,0.45-11.76-1.77-17.33-3.88c-2.45-0.93-4.9-2.6-5.05-5.47
		C233.47,349.89,234.37,346.87,237.04,344.56z M221.32,344.87c3.98,2.62,7.58,2.07,11.16,0.23c0.06,0.24,0.12,0.49,0.19,0.74
		c-1.53,0.58-3.02,1.39-4.61,1.67c-1.78,0.32-2.5,1.17-2.31,2.83c0.41,3.57,0.89,7.13,1.37,10.69c0.14,1.07,0.41,2.13,0.61,3.19
		c-0.21,0.06-0.42,0.11-0.62,0.17c-0.26-0.87-0.65-1.73-0.78-2.62c-0.54-3.56-1.3-7.12-1.41-10.7c-0.08-2.51-0.73-4.17-3.07-5.1
		C221.71,345.91,221.67,345.61,221.32,344.87z M213.89,495.48c0.66-1.76,0.98-3.64,1.39-5.18c5.55,0.31,6.19,3.82,6.12,7.72
		c-1.9,0.39-3.28,0.67-4.8,0.98C216.51,497.42,212.78,498.45,213.89,495.48z M212.98,328.93c0.25-0.07,0.51-0.14,0.76-0.21
		c0.72,2.27,1.43,4.55,2.15,6.82c-0.39,0.11-0.77,0.22-1.16,0.33C214.15,333.56,213.57,331.25,212.98,328.93z M209.17,322.46
		c-0.87,0.28-1.87,0.54-2.74,0.39c-1.89-0.33-3.75-0.89-5.61-1.43c-4.76-1.4-5.97-3.08-5.77-7.92c0.04-1.05,0.3-2.13,0.15-3.15
		c-0.5-3.61,1.78-5.66,4.15-7.64c1.75-1.45,3.51-1.35,5.55-0.13c2.72,1.62,5.29,4.28,9.02,2.49c0.08-0.04,0.29,0.15,0.88,0.48
		c-0.41,1.16-0.85,2.39-1.52,4.3c-0.38-1.05-0.42-1.31-0.56-1.5c-0.1-0.14-0.3-0.22-0.45-0.33c-0.21,0.2-0.41,0.39-0.61,0.59
		c0.68,0.78,1.36,1.57,1.85,2.12c-0.52,1.49-1,2.86-1.48,4.22c0.21,0.06,0.41,0.13,0.61,0.19c0.22-0.32,0.44-0.65,0.91-1.34
		c-0.3,2.68-0.56,4.93-0.81,7.13C211.36,321.52,210.3,322.09,209.17,322.46z M155.02,448.97c2.67-3.2,13.81-5.52,16.41-4.01
		C166.22,446.23,160.91,447.53,155.02,448.97z M153.66,438.81c-0.39-0.88-0.97-1.69-1.31-2.59c-0.79-2.13-2.1-3.32-4.44-3.99
		c-2.19-0.63-4.24-2.07-6.05-3.52c-0.77-0.61-1.35-2.34-1.06-3.26c0.92-2.91,1.98-5.94,5.12-7.31c2.63-1.15,5.63-1.68,7.92-3.28
		c3.16-2.21,6.78-3.12,10.18-3.1c7.77,0.04,14.97-3.34,22.63-3.23c6.31,0.08,12.62,0.61,18.92,1.04c0.66,0.04,1.62,0.64,1.8,1.19
		c0.17,0.52-0.33,1.49-0.81,1.98c-2.32,2.38-4.85,4.57-7.1,7.02c-3.56,3.87-6.48,8.09-6.44,13.72c0,0.58-0.74,1.49-1.33,1.69
		c-5.13,1.78-10.25,3.65-15.49,5.09c-6.51,1.79-13.13,3.19-19.7,4.77c-2.3,0.55-4.58,1.13-6.87,1.7c-0.07-0.25-0.14-0.51-0.21-0.77
		c0.36-0.19,0.69-0.45,1.07-0.56C154.43,444.25,155.28,442.52,153.66,438.81z M158.77,382.14c4.53-0.96,9.52-3.68,12.84,2.34
		c0.08,0.14,0.27,0.22,0.4,0.34c5.02,4.71,3.69,11.37-2.65,13.91c-2.14,0.86-4.15,2.12-6.05,3.44c-1.8,1.25-3.43,1.25-4.76-0.56
		c-1.31-1.77-2.6-3.56-3.72-5.44c-1.06-1.78-1.89-3.69-2.52-4.93C152.32,387.92,156.08,382.7,158.77,382.14z M154.78,380.57
		c-0.36,0.54-1.12,0.82-1.7,1.21c-3.27,2.17-3.5,2.06-4.05-1.72c-0.1-0.68-0.36-1.34-0.6-1.99c-0.73-2.06,1.43-5.17,3.59-5.12
		c1.84,0.03,4.48,1.95,4.62,4C156.71,378.12,155.55,379.43,154.78,380.57z M142.02,376.55c-2.85,0.84-5.79,1.42-7.54,4.34
		c-0.26,0.44-2.13,0.51-2.77,0.05c-2.31-1.64-4.25-3.84-6.64-5.34c-2.08-1.3-3.13-3.1-2.23-5c1.02-2.16,2.77-4.23,4.73-5.57
		c0.65-0.44,3.18,1.25,4.4,2.43c1.94,1.86,2.26,1.99,3.52-0.33c1.88-3.47,3.96-4.32,8.4-3.06c2.9,0.82,2.72,3.53,3.09,5.39
		C147.04,372.99,145.02,375.67,142.02,376.55z M129.62,458.96c0.02-0.34,0.04-0.68,0.06-1.02c2.69-1.14,5.39-2.27,8.08-3.41
		c-2.05,3.41-2.01,3.38,1.05,6.19c1.46,1.34,2.91,2.74,4.16,4.28c1.3,1.6-0.32,2.61-1.24,3.46c-0.32,0.3-1.62-0.22-2.32-0.63
		C135.5,465.54,135.39,459.36,129.62,458.96z M125.31,458.75c-2.06,1.15-4.12,2.31-6.54,3.66
		C119.22,460.03,121.98,458.36,125.31,458.75z M113.9,465.87c0.21,0.93,0.42,1.83,0.76,3.33c2.43-1.83,4.59-3.45,6.75-5.07
		c0.19,0.2,0.38,0.39,0.56,0.59c-0.81,0.72-1.8,1.32-2.37,2.2c-0.61,0.93-1.31,2.21-1.13,3.17c0.49,2.45,1.52,4.8,2.18,7.23
		c0.54,1.99-3.59,5.77-5.5,4.99c-0.62-0.25-1.29-1.24-1.32-1.91c-0.07-1.66,0.33-3.33,0.3-4.98c-0.02-0.94-0.26-2.22-0.89-2.72
		C110.99,470.92,111.2,467.33,113.9,465.87z M100.43,328.88c-0.65-3.55,1.14-7.02,4.49-8.65c3.81-1.83,5.07-1.53,8.16,1.92
		c0.94,1.05,1.78,2.27,2.92,3.02c2.97,1.94,4.29,5.01,5.81,7.93c2,3.84,5.57,5.36,9.36,6.48c2.07,0.62,4.29,0.7,6.39,1.24
		c1.84,0.48,3.22,0.33,4.26-1.46c2.86-4.92,6.78-8.58,12.36-10.27c0.81-0.25,1.48-0.96,2.27-1.31c2.71-1.21,5.46-2.34,7.84-3.36
		c4.17,1.29,7.61,2.29,11,3.44c0.57,0.2,1.07,0.93,1.36,1.53c1.98,4.1,0.54,11.15-3.34,13.63c-4.83,3.08-9.46,6.76-15.51,7.48
		c-1.33,0.16-2.68,0.86-3.86,1.57c-3.04,1.84-5.83,1.82-8.86-0.2c-1.02-0.68-2.77-0.66-4.07-0.41c-1.51,0.3-2.9,1.2-4.33,1.85
		c-5.53,2.54-6.34,2.43-9.91-2.25c-1.51-1.97-3.07-2.32-4.84-0.65c-1.76,1.66-3.57,1.52-5.23,0.21c-2.25-1.78-4.29-3.84-6.45-5.75
		C105.34,340.56,101.63,335.49,100.43,328.88z M103.73,363.27c1.33,0.81,2.98,1.39,3.85,2.54c0.42,0.56-0.33,2.93-1.09,3.26
		c-2,0.87-4.28,1.17-6.48,1.49c-0.39,0.06-1.18-0.8-1.33-1.36C98.24,367.57,101.69,363.73,103.73,363.27z M43.6,397.31
		c0.37-0.45,0.56-1.11,0.69-1.7c0.97-4.39,1.11-8.92,3.51-13.04c1.21-2.07,1.07-4.92,1.54-7.42c-0.17-0.05-0.35-0.1-0.52-0.14
		c0.31-0.93,0.38-2.15,1.02-2.68c0.39-0.32,1.69,0.34,2.52,0.7c0.88,0.39,1.83,0.79,2.49,1.44c1.49,1.47,3,1.75,5.04,1.2
		c0.93-0.25,2.4,0.48,3.24,1.2c0.81,0.69,1.18,1.93,1.66,2.97c1.46,3.24-0.23,5.99-3.81,6.34c-0.95,0.1-2.01,0.12-2.79,0.58
		c-2.35,1.39-5.16,9.38-4.25,12.01c1.08,3.14,2.25,6.24,3.48,9.32c1.72,4.29-0.14,8.78-4.38,10.4c-3.48,1.32-6.68-0.69-8.26-5.18
		c-0.55-1.58-1.15-3.14-1.66-4.73C41.9,404.76,40.64,400.95,43.6,397.31z M20.71,247.34c0.97-2.29,2.08-4.57,3.45-6.64
		c1.35-2.04,3.07-3.82,4.66-5.7c1.28-1.51,1.73-2.89,0.21-4.64c-2.68-3.07-2.65-8.88-0.01-11.98c0.55-0.65,1.57-1.2,2.41-1.26
		c5.91-0.42,8.52,1.18,10.88,6.66c0.72,1.68,1.03,3.54,1.7,5.25c1.46,3.75,4.11,6.45,7.83,7.95c2.33,0.94,4.74,1.71,7.18,2.32
		c2.34,0.59,4.96,1.69,7.1,1.15c5.39-1.35,10.74-2.35,16.31-2.43c3.63-0.05,4.19,0.22,3.43,4.07c0.71,1.3,1.15,2.88,2.17,3.85
		c4.07,3.87,8.28,7.59,12.53,11.27c1.55,1.34,3.41,2.33,5.05,3.56c0.84,0.63,1.52,1.46,2.27,2.21c-1.05,0.85-2.05,1.78-3.17,2.51
		c-0.33,0.22-1.03-0.21-1.53-0.15c-3.12,0.33-6.27,0.56-9.35,1.12c-2.02,0.37-3.91,1.41-5.93,1.85c-2.57,0.56-6.63-2.52-7.63-4.82
		c-0.69-1.6-2.23-2.92-3.61-4.12c-1.56-1.36-3.6-2.23-4.99-3.72c-1.55-1.66-3.16-2.38-5.35-2.06c-5.35,0.78-10.7,1.53-16.05,2.28
		c-0.43,0.06-0.96,0.19-1.3,0.01c-3.04-1.66-4.84,0.39-6.93,2.06c-0.99,0.78-2.5,1.38-3.73,1.32c-3.05-0.16-6.11-0.6-9.1-1.25
		c-1.17-0.26-2.36-1.24-3.18-2.19c-1.65-1.92-3.1-4.03-4.53-6.13C21.06,248.98,20.47,247.9,20.71,247.34z M15.8,115.57
		c-0.31-0.09-1.4-0.21-2.27-0.7c-3.1-1.72-6.14-3.57-9.21-5.38c-5.09-3-5.27-8.22-0.33-11.34c1.09-0.69,2.41-1.04,3.56-1.64
		c1.76-0.93,3.42-2.02,5.2-2.89c1.75-0.86,3.56-2.04,5.39-2.14c2.21-0.11,4.49,0.68,6.69,1.26c1.61,0.42,2.02,1.65,1.2,3.09
		c-0.56,0.98-1.46,1.77-1.95,2.77c-0.44,0.93-1.06,2.31-0.69,2.99c1.55,2.89,1.46,5.55,0.23,8.56
		C22.36,113.27,19.85,115.51,15.8,115.57z"/>
</g>
<g id="Layer_2_1_">
</g>
</svg>
