<?xml version="1.0" encoding="utf-8"?>
<!-- Generator: Adobe Illustrator 25.2.0, SVG Export Plug-In . SVG Version: 6.00 Build 0)  -->
<svg version="1.1" id="Layer_1" xmlns="http://www.w3.org/2000/svg" xmlns:xlink="http://www.w3.org/1999/xlink" x="0px" y="0px"
	 viewBox="0 0 48 48" style="enable-background:new 0 0 48 48;" xml:space="preserve">
<style type="text/css">
	.st0{fill:#662D91;}
</style>
<path class="st0" d="M38,6H10c-2.2,0-4,1.8-4,4v28c0,2.2,1.8,4,4,4h28c2.2,0,4-1.8,4-4V10C42,7.8,40.2,6,38,6z M13.9,16.8h3.3
	l1.9,4.9l1.9-4.9h3.3l-3.3,7l3.4,7.2H21l-2-5l-1.9,5h-3.3l3.4-7.2L13.9,16.8z M33.3,31h-2.5L30.7,30c-0.6,0.8-1.3,1.3-2.2,1.3
	c-1.1,0-2-0.4-2.5-1.3c-0.6-0.9-0.9-2.1-0.9-3.7v-0.8c0-1.7,0.3-3,0.9-3.9c0.6-0.8,1.4-1.3,2.6-1.3c0.8,0,1.5,0.3,2,1.1V16h2.8V31z
	 M29.3,22.6c-0.5,0-0.9,0.2-1.1,0.6c-0.2,0.4-0.3,1.1-0.3,2.2v0.7c0,1,0.1,1.8,0.3,2.2c0.2,0.4,0.6,0.6,1.1,0.6c0.5,0,1-0.2,1.2-0.7
	v-4.8C30.3,22.8,29.8,22.6,29.3,22.6z"/>
</svg>
