<?xml version="1.0" encoding="utf-8"?>
<!-- Generator: Adobe Illustrator 25.2.0, SVG Export Plug-In . SVG Version: 6.00 Build 0)  -->
<svg version="1.1" id="Layer_1" xmlns="http://www.w3.org/2000/svg" xmlns:xlink="http://www.w3.org/1999/xlink" x="0px" y="0px"
	 viewBox="0 0 864 312.5" style="enable-background:new 0 0 864 312.5;" xml:space="preserve">
<style type="text/css">
	.st0{fill:#C6C6C6;}
	.st1{fill:#A7A7A7;}
	.st2{fill:#D3D3D3;}
	.st3{fill:#D7D7D7;}
	.st4{fill:#A9A9A9;}
	.st5{fill:#D1D1D1;}
	.st6{fill:#BDBDBD;}
	.st7{fill:#5A5A5A;}
	.st8{font-family:'LaurenScript';}
	.st9{font-size:38px;}
	.st10{font-size:16px;}
	.st11{fill:none;}
	.st12{font-family:'AlphaMondayRegular';}
</style>
<image style="overflow:visible;" width="717" height="585" xlink:href="../../../program/SmartSelect_20230707_140417_Facebook.jpg"  transform="matrix(1 0 0 1 1144.9108 -252.4149)">
</image>
<path id="_x37_" class="st0" d="M350.3,54.9l-5.7-2.4c-2.1-0.9-3.1-3.3-2.2-5.4l2.4-5.7c0.9-2.1,3.3-3.1,5.4-2.2l5.7,2.4
	c2.1,0.9,3.1,3.3,2.2,5.4l-2.4,5.7C354.9,54.8,352.4,55.8,350.3,54.9z"/>
<path id="_x36_" class="st1" d="M604.7,85.9l-10.4-3.3c-2.2-0.7-3.4-3-2.7-5.2l3.3-10.4c0.7-2.2,3-3.4,5.2-2.7l10.4,3.3
	c2.2,0.7,3.4,3,2.7,5.2l-3.3,10.4C609.2,85.3,606.9,86.5,604.7,85.9z"/>
<path id="_x35_" class="st2" d="M652.1,174.8l-4.3,2.5c-1,0.6-2.2,0.2-2.8-0.7l-2.5-4.3c-0.6-1-0.2-2.2,0.7-2.8l4.3-2.5
	c1-0.6,2.2-0.2,2.8,0.7l2.5,4.3C653.4,173,653.1,174.2,652.1,174.8z"/>
<path id="_x34_" class="st3" d="M695,96.6l-5.2-3c-1-0.6-1.3-1.8-0.8-2.8l3-5.2c0.6-1,1.8-1.3,2.8-0.8l5.2,3c1,0.6,1.3,1.8,0.8,2.8
	l-3,5.2C697.3,96.8,696,97.2,695,96.6z"/>
<path id="_x33_" class="st4" d="M168.6,78l-3.7-1.1c-1.4-0.4-2.3-2-1.8-3.4l1.1-3.7c0.4-1.4,2-2.3,3.4-1.8l3.7,1.1
	c1.4,0.4,2.3,2,1.8,3.4l-1.1,3.7C171.5,77.6,170,78.4,168.6,78z"/>
<path id="_x32_" class="st5" d="M333.1,194.2l-4.3-2.7c-1.3-0.8-1.7-2.5-0.9-3.8l2.7-4.3c0.8-1.3,2.5-1.7,3.8-0.9l4.3,2.7
	c1.3,0.8,1.7,2.5,0.9,3.8l-2.7,4.3C336.1,194.6,334.4,195,333.1,194.2z"/>
<path id="_x31_" class="st6" d="M192.9,185.6l-11.2,5.9c-2.7,1.4-6,0.4-7.4-2.3l-5.9-11.2c-1.4-2.7-0.4-6,2.3-7.4l11.2-5.9
	c2.7-1.4,6-0.4,7.4,2.3l5.9,11.2C196.6,180.9,195.6,184.2,192.9,185.6z"/>
<text transform="matrix(1 0 0 1 224.7136 119.2077)" class="st7 st8 st9">Hi, I’m Saiduzzaman.</text>
<g>
	<g>
		<g>
			<path class="st7" d="M350.6,152.8c-0.5,1-1.2,2-1.9,2.9c-0.7,0.9-1.4,1.7-2.1,2.5c-0.7-0.8-1.5-1.6-2.1-2.5
				c-0.7-0.9-1.4-1.9-1.9-2.9c-0.5-1-0.8-2-0.8-2.8c0-2.6,2.1-4.8,4.8-4.8c2.6,0,4.8,2.1,4.8,4.8
				C351.4,150.8,351.1,151.8,350.6,152.8z M346.6,159.6c0,0,5.8-5.5,5.8-9.6c0-3.2-2.6-5.8-5.8-5.8c-3.2,0-5.8,2.6-5.8,5.8
				C340.8,154.1,346.6,159.6,346.6,159.6z"/>
			<path class="st7" d="M346.6,151.9c-1.1,0-1.9-0.9-1.9-1.9c0-1.1,0.9-1.9,1.9-1.9s1.9,0.9,1.9,1.9
				C348.5,151,347.6,151.9,346.6,151.9z M346.6,152.8c1.6,0,2.9-1.3,2.9-2.9c0-1.6-1.3-2.9-2.9-2.9s-2.9,1.3-2.9,2.9
				C343.7,151.6,345,152.8,346.6,152.8z"/>
		</g>
	</g>
	<text transform="matrix(1 0 0 1 370.5955 160.2177)" class="st7 st8 st10">Dhaka, Bangladesh</text>
</g>
<rect x="158.3" y="225.4" class="st11" width="547.3" height="80.2"/>
<text transform="matrix(1 0 0 1 158.3476 240.5363)"><tspan x="0" y="0" class="st7 st12 st10">You can never understand everything. But, you should push yourself to </tspan><tspan x="0" y="19.2" class="st7 st12 st10">understand the system.</tspan><tspan x="0" y="38.4" class="st7 st12 st10">-Ryan Dahl (Creator of Node JS)</tspan></text>
</svg>
