<?xml version="1.0" encoding="utf-8"?>
<!-- Generator: Adobe Illustrator 25.2.0, SVG Export Plug-In . SVG Version: 6.00 Build 0)  -->
<svg version="1.1" id="Layer_1" xmlns="http://www.w3.org/2000/svg" xmlns:xlink="http://www.w3.org/1999/xlink" x="0px" y="0px"
	 viewBox="0 0 864 312.5" style="enable-background:new 0 0 864 312.5;" xml:space="preserve">
<style type="text/css">
	.st0{fill:#949990;}
	.st1{enable-background:new    ;}
</style>
<rect class="st0" width="864" height="312.5"/>
<g class="st1">
	<path d="M160.3,137.2c-4.7,0-9-1-13-2.9l2.4-2.2c3.2,2.3,6.6,3.4,10,3.4c6.9,0,12.7-5.3,17.4-15.9c3-6.7,5.3-15,7.1-25
		c-3.4-0.4-7.3-0.6-11.8-0.6c-11,0-16.5,1.4-16.5,4.3c0,1.5,1.8,2.7,5.3,3.5c0.3,0.1,2.7,0.5,7.2,1.1l-2.3,2.4
		c-2.4,0-4.9-0.5-7.3-1.6c-3-1.4-4.5-3.1-4.5-5.2c0-5.1,9-7.5,27.1-7.4l6.9,0.1C182.7,121.9,173.4,137.2,160.3,137.2z"/>
	<path d="M193.3,137.4c-0.2,0-0.7-0.1-1.4-0.3c-0.5-0.4-0.8-1-0.9-1.8c0.7-2.2,1.7-5.6,3.1-10l-0.5-0.8c-1.4,0-3.2,1.7-5.5,5.2
		c-1.7,2.6-3,5.1-3.9,7.3h-2.5c3-13,6.7-26.1,11.2-39.3l3.4-0.8l-9.5,32.2c2.9-4.3,5.3-6.5,7.3-6.5c1.6,0,2.4,1.2,2.4,3.6
		c0,1.3-0.3,2.7-1,4.4c-0.6,1.4-1.2,2.9-1.8,4.2l0.4,0.4c1.4,0,2.7-1.2,3.9-3.4l1.7-0.7c-0.3,1.5-1.1,2.8-2.3,4.1
		C196,136.8,194.7,137.4,193.3,137.4z"/>
	<path d="M213.3,137.3c-1.7,0-2.5-0.8-2.5-2.5c0-0.8,0.2-1.8,0.6-2.9c-2.8,3.7-5.2,5.5-7.1,5.5c-2.1,0-3.2-1.1-3.2-3.4
		c0-2.5,1.2-5,3.5-7.3c2.3-2.3,4.8-3.5,7.3-3.5c0.6,0,1.5,0.2,2.6,0.5l-1.2,1.7c-0.7-0.4-1.5-0.6-2.3-0.6c-1.7,0-3.3,1.1-4.8,3.2
		c-1.5,2.1-2.2,4.1-2.2,5.9c0,0.9,0.5,1.3,1.6,1.3c1.3,0,3.1-1.6,5.3-4.9c0.1,0,1.5-2.3,4.2-6.7h2.1c-0.7,1.7-1.3,3.5-2,5.2
		c-0.9,2.4-1.4,4.1-1.4,5.1c0,0.3,0.1,0.7,0.2,1.3h0.7l3.5-2.8h1.1c-0.3,1.2-1,2.3-2.3,3.4C215.8,136.7,214.5,137.3,213.3,137.3z"/>
	<path d="M232.3,137.4c-1.7,0-2.5-0.9-2.5-2.7c0-1.1,0.5-2.7,1.6-4.7c1.1-2,1.6-3.5,1.6-4.6c0-0.4-0.2-0.7-0.5-0.9
		c-1.7,0.7-3.6,2.5-5.6,5.7c-1.3,2.3-2.7,4.5-4.1,6.8l-2.2-0.1l3.7-13.3l3.2-0.7l-2.2,7.9c1-1.6,2.1-3.2,3.2-4.8
		c1.6-2.1,3.1-3.1,4.6-3.1c0.6,0,1.1,0.3,1.7,0.8s0.9,1.1,0.9,1.7c0,1.3-0.5,2.9-1.4,4.9c-1,2.2-1.6,3.8-1.8,4.8l0.9,0.1
		c0.8,0,2.3-1.3,4.4-3.9l0.3,1.4C236.2,135.9,234.3,137.4,232.3,137.4z"/>
	<path d="M250.2,132.2c0.6,1.6,1.8,2.7,3.7,3.5l-2.1,1.8l-4.4-3.7l-0.2-1.4c1.4-0.6,2.7-1.5,4-2.6c1.6-1.4,2.4-2.6,2.4-3.8
		c0-0.8-0.4-1.2-1.3-1.2c-2.3,0-5.5,4.1-9.8,12.3h-2.5l11.2-39.3l3.5-1.5c-3,10.9-6.2,22.2-9.7,33.7c3.3-4.8,6.1-7.2,8.3-7.2
		c0.8,0,1.5,0.3,2.1,0.9c0.6,0.6,0.9,1.3,0.9,2.1c0,1.4-0.7,2.7-2,3.9C252.9,130.8,251.6,131.6,250.2,132.2z"/>
	<path d="M274.8,151.6c-1.6,0-2.4-0.8-2.4-2.5c0-1.8,1.2-3.9,3.6-6.5c2.6-2.7,4-4.3,4.1-4.7c0.6-2,1.4-4.9,2.5-8.9
		c-3,5.6-5.6,8.4-8,8.4c-1.6,0-2.4-1.2-2.4-3.5c0-1.9,0.9-5.3,2.6-10.2l3.1-0.5c-2,5.5-3.1,9.2-3.1,11c0,0.5,0.1,1,0.3,1.6h0.2
		c1.5,0,4.4-4.1,8.7-12.4h2.8l-2.6,10.5l2.5-2.1l0.3,1.3c-1.1,1.2-2.3,2.4-3.6,3.8c-0.4,0.7-1,2.5-1.8,5.4c-0.8,2.9-1.6,5-2.4,6.3
		C278.1,150.6,276.6,151.6,274.8,151.6z M273.9,150.1l0.7,0.5c1.9,0,3.5-3.1,4.7-9.3C275.7,144.3,273.9,147.2,273.9,150.1z"/>
	<path d="M295.4,137.2c-1.3,0-2.5-0.4-3.3-1.1c-0.8-0.8-1.3-1.8-1.3-3.1c0-2.4,0.9-4.7,2.7-6.8c1.8-2.1,3.9-3.2,6.2-3.2
		c2.7,0,4.1,1.6,4.1,4.8c0,2.3-0.8,4.5-2.5,6.4C299.7,136.2,297.7,137.2,295.4,137.2z M299.1,124.6c-1.3,0-2.5,1.2-3.8,3.5
		c-1.1,2.1-1.6,3.9-1.6,5.3c0,1.8,0.6,2.7,1.9,2.7c1.4,0,2.8-1.2,4.1-3.5c1.1-2,1.6-3.9,1.6-5.5
		C301.3,125.4,300.5,124.6,299.1,124.6z"/>
	<path d="M319.8,135l3.9-3.1l0.5,1.2c-2.5,2.8-4.4,4.2-5.8,4.2c-1.4,0-2.1-1-2.1-3.1c0-1.3,0.4-3.2,1.2-5.7c-1,1.8-2.1,3.5-3.1,5.3
		c-1.6,2.3-3.1,3.4-4.6,3.4c-0.5,0-1-0.1-1.6-0.4c-0.7-0.3-1-0.7-1-1.2c0-3.1,0.9-7.1,2.7-12l3.1-0.5c-0.7,2-1.4,4-2.1,6
		c-0.8,2.4-1.2,4.5-1.2,6.2l0.7,0.4c0.9,0,2.5-1.8,4.7-5.5c1.6-2.5,2.9-4.8,3.9-7h2.8l-2.7,11l0.2,0.6L319.8,135z"/>
	<path d="M345,128c1.8-0.7,3.6-1.6,5.4-2.9l0.3,1.6c-2,1.4-4,2.4-6,3.1c-1.7,6.1-3.7,12.7-6.1,19.5l-4.2,1.4
		c3-6.9,5.4-13.8,7.2-20.7l-1.6-0.3c1.4-1.4,3.1-5.5,5.2-12.2c3-9.8,4.8-15.4,5.4-16.9c2.2-5.7,4.4-8.6,6.4-8.6
		c1.5,0,2.2,1.2,2.2,3.5c0,4.8-1.1,9.4-3.3,13.9c-1,2-3.1,5.4-6.4,10.1C346.7,123.1,345.3,125.9,345,128z M356.9,94.3
		c-2.9,3.3-6.3,12.3-10.2,27c2.7-3.8,5.1-8,7.1-12.5c2.5-5.4,3.8-10,3.8-13.6C357.6,94.8,357.4,94.5,356.9,94.3z"/>
	<path d="M355.6,137.2c-1.3,0-2.5-0.4-3.3-1.1c-0.8-0.8-1.3-1.8-1.3-3.1c0-2.4,0.9-4.7,2.7-6.8c1.8-2.1,3.9-3.2,6.2-3.2
		c2.7,0,4.1,1.6,4.1,4.8c0,2.3-0.8,4.5-2.5,6.4C359.9,136.2,357.9,137.2,355.6,137.2z M359.3,124.6c-1.3,0-2.5,1.2-3.8,3.5
		c-1.1,2.1-1.6,3.9-1.6,5.3c0,1.8,0.6,2.7,1.9,2.7c1.4,0,2.8-1.2,4.1-3.5c1.1-2,1.6-3.9,1.6-5.5
		C361.4,125.4,360.7,124.6,359.3,124.6z"/>
	<path d="M375.5,130.1c0-0.8,0-2.1,0-3.7V126l-0.5,0.1c-2.5,4-4.4,7.6-5.9,10.9h-2.4l2.6-12.7l3.2-1.1l-1.3,6.4
		c2.2-4.3,4-6.4,5.5-6.4l0.7,0.1c0.7,0.7,1,1.7,1,2.7C378.5,128.1,377.5,129.4,375.5,130.1z"/>
	<path d="M397,137.3c-1.7,0-2.5-1.6-2.5-4.9c0-2.1,0.7-5,2.1-8.7l3.1-0.5c-1.8,5-2.7,8.5-2.7,10.4c0,0.7,0.1,1.3,0.2,2l0.6,0.1
		c2,0,4.4-4,7.4-12l2.8-0.2c-1.3,2.9-2.8,5.6-4.5,8.2C401,135.4,398.8,137.3,397,137.3z"/>
	<path d="M411.8,137.4c-0.6,0-1.1-0.3-1.5-0.8c-0.4-0.5-0.6-1.1-0.6-1.7c0-1.6,1-5.3,3.1-11.3l3.1-0.7c-0.6,1.9-1.2,3.9-1.8,5.8
		c-0.7,2.4-1.2,4.4-1.4,5.9l0.8,0.1c0.6,0,1.8-1.3,3.5-3.9c0.2,0.7,0.3,1.3,0.3,1.8c-0.4,0.8-1.3,1.7-2.5,2.8
		C413.5,136.8,412.5,137.4,411.8,137.4z M416.3,118.5l-0.9-0.3c-0.5-0.4-0.7-1-0.7-1.7c0-0.7,0.5-1.4,1.4-1.8
		c1.4,0.2,2.1,0.8,2.1,1.9C418.1,117.7,417.5,118.4,416.3,118.5z"/>
	<path d="M427.4,124.9c1.1,2,1.7,4,1.7,6c0,2-0.6,3.6-1.8,4.8s-2.8,1.8-4.8,1.8c-2.1,0-3.3-0.9-3.7-2.7c0.4-0.6,0.9-0.9,1.4-0.9
		s1.2,0.3,1.9,0.9c0.8,0.6,1.4,0.9,1.9,0.9c1.5,0,2.3-1.3,2.3-3.8c0-0.9-0.3-2.9-1-5.9h-0.1l-4.4,4.7l-1-0.3l5.3-6.1
		c0-0.7,0.3-1.5,0.8-2.3c0.5-0.8,1.1-1.3,1.8-1.3c0.2,0,0.4,0.1,0.7,0.4c0.3,0.2,0.5,0.4,0.5,0.6C429.1,122.9,428.5,124,427.4,124.9
		z"/>
	<path d="M435.9,137.4c-0.6,0-1.1-0.3-1.5-0.8c-0.4-0.5-0.6-1.1-0.6-1.7c0-1.6,1-5.3,3.1-11.3l3.1-0.7c-0.6,1.9-1.2,3.9-1.8,5.8
		c-0.7,2.4-1.2,4.4-1.4,5.9l0.8,0.1c0.6,0,1.8-1.3,3.5-3.9c0.2,0.7,0.3,1.3,0.3,1.8c-0.4,0.8-1.3,1.7-2.5,2.8
		C437.6,136.8,436.6,137.4,435.9,137.4z M440.4,118.5l-0.9-0.3c-0.5-0.4-0.7-1-0.7-1.7c0-0.7,0.5-1.4,1.4-1.8
		c1.4,0.2,2.1,0.8,2.1,1.9C442.3,117.7,441.6,118.4,440.4,118.5z"/>
	<path d="M454.9,121.5h-4.2l-3.7,12.8l0.3,0.7c0.3,0.1,0.5,0.1,0.6,0.1c0.7,0,1.6-0.5,2.5-1.4c0.7-0.7,1.4-1.5,2.1-2.3l0.5,1.2
		c-2.3,3.1-4.4,4.6-6.5,4.6c-0.7,0-1.2-0.3-1.8-0.8c-0.5-0.5-0.8-1.1-0.8-1.7c0-0.2,1.2-4.6,3.7-13.3h-1.6l0.4-1.8h1.7l2.6-9.5
		l3-0.7l-2.8,10.2h4.2L454.9,121.5z"/>
	<path d="M457.4,137.4c-0.6,0-1.1-0.3-1.5-0.8c-0.4-0.5-0.6-1.1-0.6-1.7c0-1.6,1-5.3,3.1-11.3l3.1-0.7c-0.6,1.9-1.2,3.9-1.8,5.8
		c-0.7,2.4-1.2,4.4-1.4,5.9l0.8,0.1c0.6,0,1.8-1.3,3.5-3.9c0.2,0.7,0.3,1.3,0.3,1.8c-0.4,0.8-1.3,1.7-2.5,2.8
		C459,136.8,458,137.4,457.4,137.4z M461.9,118.5l-0.9-0.3c-0.5-0.4-0.7-1-0.7-1.7c0-0.7,0.5-1.4,1.4-1.8c1.4,0.2,2.1,0.8,2.1,1.9
		C463.7,117.7,463.1,118.4,461.9,118.5z"/>
	<path d="M476.6,137.4c-1.7,0-2.5-0.9-2.5-2.7c0-1.1,0.5-2.7,1.6-4.7c1.1-2,1.6-3.5,1.6-4.6c0-0.4-0.2-0.7-0.5-0.9
		c-1.7,0.7-3.6,2.5-5.6,5.7c-1.3,2.3-2.7,4.5-4.1,6.8l-2.2-0.1l3.7-13.3l3.2-0.7l-2.2,7.9c1-1.6,2.1-3.2,3.2-4.8
		c1.6-2.1,3.1-3.1,4.6-3.1c0.6,0,1.1,0.3,1.7,0.8s0.9,1.1,0.9,1.7c0,1.3-0.5,2.9-1.4,4.9c-1,2.2-1.6,3.8-1.8,4.8l0.9,0.1
		c0.8,0,2.3-1.3,4.4-3.9l0.3,1.4C480.5,135.9,478.6,137.4,476.6,137.4z"/>
	<path d="M486.9,151.6c-1.8,0-2.7-1-2.7-3c0-1.5,0.6-2.9,1.8-4.4c0.7-0.8,1.9-2,3.8-3.6c1.7-1.4,2.9-2.6,3.5-3.4
		c0.5-0.7,1-2.3,1.4-4.8c-2.4,3.5-4.7,5.2-6.8,5.2c-1,0-1.8-0.4-2.5-1.2c-0.6-0.8-0.9-1.7-0.9-2.7c0-2.7,1.4-5.2,4.1-7.4
		c2.6-2.1,5.2-3.2,8-3.2c0.8,0,1.8,0.1,3,0.4l-0.4,2.1c-1.1-0.6-2.2-0.9-3.3-0.9c-2.2,0-4.1,0.9-5.8,2.8s-2.4,3.9-2.4,6.1
		c0,1.2,0.5,1.8,1.4,1.8c1.8,0,4.5-3.2,8.1-9.5l1.7,0.4l-1.7,8l2.8-2.5l0.7,1.2c-1.4,1.3-2.7,2.6-4.2,4c-0.5,0.7-1.2,2.6-2.1,5.5
		c-0.9,2.9-1.8,5-2.6,6.3C490.3,150.6,488.8,151.6,486.9,151.6z M485.8,149.4c0,0.7,0.3,1.1,1,1.1c2,0,3.9-3.5,5.8-10.6
		C488,143.7,485.8,146.8,485.8,149.4z"/>
	<path d="M536.5,137.4l-1.2-0.4l-0.7-1.2c0-1.4,0.9-4.9,2.5-10.5l-0.4-0.4c-2.3,1.1-5.3,5.2-8.9,12.1h-3.1
		c2.5-6.4,3.8-10.2,3.9-11.4l-0.5-0.8c-1.1,0.1-2.8,1.9-4.9,5.3c-1.3,2.3-2.7,4.6-4,6.9h-2.5l3-12.4c0.2-0.9,1.1-1.3,2.7-1.2h0.5
		c-0.4,2.2-1,4.7-1.8,7.6c3.1-5.1,5.7-7.7,7.7-7.7c1.5,0,2.2,0.9,2.2,2.6c0,0.2-0.3,1.7-1,4.4c2.7-4.7,5.1-7,7-7
		c0.6,0,1.3,0.2,2,0.7c0.7,0.5,1,1,1,1.6c0,0.9-0.4,2.2-1.1,4c-0.8,1.7-1.1,3-1.1,3.8c0,0.3,0.1,0.9,0.2,1.7c0.8,0,1.7-0.5,2.6-1.4
		c0.7-0.7,1.5-1.5,2.2-2.2l0.9,1.1c-1.1,1-2.2,2-3.3,3C539,136.9,537.7,137.4,536.5,137.4z"/>
	<path d="M548,151.6c-1.6,0-2.4-0.8-2.4-2.5c0-1.8,1.2-3.9,3.6-6.5c2.6-2.7,4-4.3,4.1-4.7c0.6-2,1.4-4.9,2.5-8.9
		c-3,5.6-5.6,8.4-8,8.4c-1.6,0-2.4-1.2-2.4-3.5c0-1.9,0.9-5.3,2.6-10.2l3.1-0.5c-2,5.5-3.1,9.2-3.1,11c0,0.5,0.1,1,0.3,1.6h0.2
		c1.5,0,4.4-4.1,8.7-12.4h2.8l-2.6,10.5l2.5-2.1l0.3,1.3c-1.1,1.2-2.3,2.4-3.6,3.8c-0.4,0.7-1,2.5-1.8,5.4c-0.8,2.9-1.6,5-2.4,6.3
		C551.3,150.6,549.8,151.6,548,151.6z M547.2,150.1l0.7,0.5c1.9,0,3.5-3.1,4.7-9.3C549,144.3,547.2,147.2,547.2,150.1z"/>
	<path d="M585,137.6c-1,0-2.1-0.4-3.3-1.2l0.7-1.6c0.8,0.9,1.6,1.3,2.4,1.3c1.5,0,2.9-1.2,4.2-3.5c1.1-2.1,1.6-3.9,1.6-5.6
		c0-1.6-0.5-2.4-1.5-2.4c-2.2,0-4.9,3.8-8,11.5c-1.8,4.6-3.5,9.6-5,14.9l-3.4,0.9c3.1-9.8,5.9-19.2,8.2-28.2l3.4-0.6
		c-0.6,1.9-1.5,4.7-2.7,8.6c2.4-5.7,5-8.6,7.6-8.6c1.3,0,2.3,0.5,3.1,1.5c0.8,1,1.2,2.2,1.2,3.6c0,2.3-0.8,4.5-2.5,6.5
		C589.2,136.6,587.2,137.6,585,137.6z"/>
	<path d="M601.2,137.2c-1.3,0-2.5-0.4-3.3-1.1c-0.8-0.8-1.3-1.8-1.3-3.1c0-2.4,0.9-4.7,2.7-6.8c1.8-2.1,3.9-3.2,6.2-3.2
		c2.7,0,4.1,1.6,4.1,4.8c0,2.3-0.8,4.5-2.5,6.4C605.4,136.2,603.4,137.2,601.2,137.2z M604.8,124.6c-1.3,0-2.5,1.2-3.8,3.5
		c-1.1,2.1-1.6,3.9-1.6,5.3c0,1.8,0.6,2.7,1.9,2.7c1.4,0,2.8-1.2,4.1-3.5c1.1-2,1.6-3.9,1.6-5.5C607,125.4,606.3,124.6,604.8,124.6z
		"/>
	<path d="M621.1,130.1c0-0.8,0-2.1,0-3.7V126l-0.5,0.1c-2.5,4-4.4,7.6-5.9,10.9h-2.4l2.6-12.7l3.2-1.1l-1.3,6.4
		c2.2-4.3,4-6.4,5.5-6.4l0.7,0.1c0.7,0.7,1,1.7,1,2.7C624,128.1,623.1,129.4,621.1,130.1z"/>
	<path d="M636.9,121.5h-4.2l-3.7,12.8l0.3,0.7c0.3,0.1,0.5,0.1,0.6,0.1c0.7,0,1.6-0.5,2.5-1.4c0.7-0.7,1.4-1.5,2.1-2.3l0.5,1.2
		c-2.3,3.1-4.4,4.6-6.5,4.6c-0.7,0-1.2-0.3-1.8-0.8c-0.5-0.5-0.8-1.1-0.8-1.7c0-0.2,1.2-4.6,3.7-13.3h-1.6l0.4-1.8h1.7l2.6-9.5
		l3-0.7l-2.8,10.2h4.2L636.9,121.5z"/>
	<path d="M642.3,128c1.8-0.7,3.6-1.6,5.4-2.9l0.3,1.6c-2,1.4-4,2.4-6,3.1c-1.7,6.1-3.7,12.7-6.1,19.5l-4.2,1.4
		c3-6.9,5.4-13.8,7.2-20.7l-1.6-0.3c1.4-1.4,3.1-5.5,5.2-12.2c3-9.8,4.8-15.4,5.4-16.9c2.2-5.7,4.4-8.6,6.4-8.6
		c1.5,0,2.2,1.2,2.2,3.5c0,4.8-1.1,9.4-3.3,13.9c-1,2-3.1,5.4-6.4,10.1C644.1,123.1,642.6,125.9,642.3,128z M654.3,94.3
		c-2.9,3.3-6.3,12.3-10.2,27c2.7-3.8,5.1-8,7.1-12.5c2.5-5.4,3.8-10,3.8-13.6C655,94.8,654.8,94.5,654.3,94.3z"/>
	<path d="M653,137.2c-1.3,0-2.5-0.4-3.3-1.1c-0.8-0.8-1.3-1.8-1.3-3.1c0-2.4,0.9-4.7,2.7-6.8c1.8-2.1,3.9-3.2,6.2-3.2
		c2.7,0,4.1,1.6,4.1,4.8c0,2.3-0.8,4.5-2.5,6.4C657.2,136.2,655.3,137.2,653,137.2z M656.6,124.6c-1.3,0-2.5,1.2-3.8,3.5
		c-1.1,2.1-1.6,3.9-1.6,5.3c0,1.8,0.6,2.7,1.9,2.7c1.4,0,2.8-1.2,4.1-3.5c1.1-2,1.6-3.9,1.6-5.5
		C658.8,125.4,658.1,124.6,656.6,124.6z"/>
	<path d="M669.1,134l0.1,0.9h0.9l3.8-3.7l0.5,1.2c-1,1-1.9,2-2.8,2.9c-1.2,1-2.4,1.7-3.6,1.8l-1.4-0.7c-0.4-0.8-0.7-1.5-0.7-2.2
		c0-1.1,0.4-3.4,1.2-6.9l-2.1,1.8c0.6-1.7,1.4-3.1,2.5-4.3c1-4.5,2.9-10.5,5.8-18.2c3.6-9.7,6.4-14.6,8.4-14.6c1.6,0,2.4,1,2.4,2.9
		c0,1.9-0.3,3.5-0.8,5l-3.4,8.8c-0.5,1.3-2,3.7-4.5,7.2c-2.4,3.3-3.7,5.3-3.9,5.9C669.9,127.9,669.1,131.9,669.1,134z M672.7,118.4
		c2.6-3.5,4.8-7.2,6.5-11c2.2-4.7,3.3-8.7,3.3-12.2v-0.7c-1.4,0.4-3.4,4-5.8,10.9C675.2,109.6,673.8,114,672.7,118.4z"/>
	<path d="M679.1,137.4c-0.6,0-1.1-0.3-1.5-0.8c-0.4-0.5-0.6-1.1-0.6-1.7c0-1.6,1-5.3,3.1-11.3l3.1-0.7c-0.6,1.9-1.2,3.9-1.8,5.8
		c-0.7,2.4-1.2,4.4-1.4,5.9l0.8,0.1c0.6,0,1.8-1.3,3.5-3.9c0.2,0.7,0.3,1.3,0.3,1.8c-0.4,0.8-1.3,1.7-2.5,2.8
		C680.7,136.8,679.7,137.4,679.1,137.4z M683.6,118.5l-0.9-0.3c-0.5-0.4-0.7-1-0.7-1.7c0-0.7,0.5-1.4,1.4-1.8
		c1.4,0.2,2.1,0.8,2.1,1.9C685.4,117.7,684.8,118.4,683.6,118.5z"/>
	<path d="M691.4,137.2c-1.3,0-2.5-0.4-3.3-1.1c-0.8-0.8-1.3-1.8-1.3-3.1c0-2.4,0.9-4.7,2.7-6.8c1.8-2.1,3.9-3.2,6.2-3.2
		c2.7,0,4.1,1.6,4.1,4.8c0,2.3-0.8,4.5-2.5,6.4C695.6,136.2,693.7,137.2,691.4,137.2z M695.1,124.6c-1.3,0-2.5,1.2-3.8,3.5
		c-1.1,2.1-1.6,3.9-1.6,5.3c0,1.8,0.6,2.7,1.9,2.7c1.4,0,2.8-1.2,4.1-3.5c1.1-2,1.6-3.9,1.6-5.5
		C697.2,125.4,696.5,124.6,695.1,124.6z"/>
	<path d="M708,137.4c-0.5,0-0.9-0.3-1.2-0.8c-0.3-0.5-0.5-1-0.5-1.6c0-0.9,0.6-1.3,1.7-1.3c1.1,0,1.7,0.5,1.7,1.6
		C709.6,136.8,709,137.4,708,137.4z"/>
	<path d="M329.9,201.7h4.4l-0.5,1.5l-4.4,0.3l-4.2,12h-1.8c-1.4-2.5-3.3-5.4-5.9-8.6c-3.2-4-5.7-6.1-7.4-6.3c-1.7,3.7-4,7-7,9.8
		c-3.5,3.4-7,5-10.5,5c-5.8,0-10.9-1.2-15.2-3.5l2.1-2.1c3.2,1.4,5.1,2.3,5.9,2.6c2.2,0.8,4.3,1.2,6.3,1.2c6,0,11.7-5.4,17-16.2
		c3.3-6.6,6.2-14.8,8.7-24.4c1.2-1.4,2.8-2.2,4.8-2.3c-3,9-6.8,18.6-11.4,28.8c4.7,1.5,10.1,2.2,16.2,2.2l9.8-31l4.1-1.7
		L329.9,201.7z M315,202.3c3.2,2.7,6,6,8.6,10l3-8.6C323.3,203.6,319.4,203.2,315,202.3z"/>
	<path d="M346.3,215.7c-1.7,0-2.5-0.8-2.5-2.5c0-0.8,0.2-1.8,0.6-2.9c-2.8,3.7-5.2,5.5-7.1,5.5c-2.1,0-3.2-1.1-3.2-3.4
		c0-2.5,1.2-5,3.5-7.3c2.3-2.3,4.8-3.5,7.3-3.5c0.6,0,1.5,0.2,2.6,0.5l-1.2,1.7c-0.7-0.4-1.5-0.6-2.3-0.6c-1.7,0-3.3,1.1-4.8,3.2
		c-1.5,2.1-2.2,4.1-2.2,5.9c0,0.9,0.5,1.3,1.6,1.3c1.3,0,3.1-1.6,5.3-4.9c0.1,0,1.5-2.3,4.2-6.7h2.1c-0.7,1.7-1.3,3.5-2,5.2
		c-0.9,2.4-1.4,4.1-1.4,5.1c0,0.3,0.1,0.7,0.2,1.3h0.7l3.5-2.8h1.1c-0.3,1.2-1,2.3-2.3,3.4C348.7,215.1,347.5,215.7,346.3,215.7z"/>
	<path d="M357.7,215.7c-1.7,0-2.5-1.6-2.5-4.9c0-2.1,0.7-5,2.1-8.7l3.1-0.5c-1.8,5-2.7,8.5-2.7,10.4c0,0.7,0.1,1.3,0.2,2l0.6,0.1
		c2,0,4.4-4,7.4-12l2.8-0.2c-1.3,2.9-2.8,5.6-4.5,8.2C361.6,213.9,359.5,215.7,357.7,215.7z"/>
	<path d="M372.4,212.4c-0.1,1.2,0.4,1.8,1.6,1.8c1.7,0,3.7-1.3,6-4.1h0.8c-0.3,1.4-1.3,2.7-3.1,3.9c-1.8,1.2-3.3,1.8-4.7,1.8
		c-2.4,0-3.6-1.3-3.6-3.9c0-2,1-4.2,3-6.7c2-2.5,4-3.7,5.8-3.7s2.8,0.9,2.8,2.6C381,207.2,378.2,209.9,372.4,212.4z M378.1,203.1
		c-1.4,0.1-2.6,1.2-3.8,3.1c-1,1.7-1.6,3.4-1.8,4.9c1.5-0.7,2.9-1.5,4.1-2.7c1.6-1.4,2.4-2.7,2.4-4
		C379.1,204.1,378.7,203.6,378.1,203.1z"/>
	<path d="M408.9,215.7c-1.7,0-2.5-0.8-2.5-2.5c0-0.8,0.2-1.8,0.6-2.9c-2.8,3.7-5.2,5.5-7.1,5.5c-2.1,0-3.2-1.1-3.2-3.4
		c0-2.5,1.2-5,3.5-7.3c2.3-2.3,4.8-3.5,7.3-3.5c0.6,0,1.5,0.2,2.6,0.5l-1.2,1.7c-0.7-0.4-1.5-0.6-2.3-0.6c-1.7,0-3.3,1.1-4.8,3.2
		c-1.5,2.1-2.2,4.1-2.2,5.9c0,0.9,0.5,1.3,1.6,1.3c1.3,0,3.1-1.6,5.3-4.9c0.1,0,1.5-2.3,4.2-6.7h2.1c-0.7,1.7-1.3,3.5-2,5.2
		c-0.9,2.4-1.4,4.1-1.4,5.1c0,0.3,0.1,0.7,0.2,1.3h0.7l3.5-2.8h1.1c-0.3,1.2-1,2.3-2.3,3.4C411.3,215.1,410.1,215.7,408.9,215.7z"/>
	<path d="M441,215.9c-1.7,0-2.5-0.9-2.5-2.7c0-1.1,0.5-2.7,1.6-4.7c1.1-2,1.6-3.5,1.6-4.6c0-0.4-0.2-0.7-0.5-0.9
		c-1.7,0.7-3.6,2.5-5.6,5.7c-1.3,2.3-2.7,4.5-4.1,6.8l-2.2-0.1l3.7-13.3l3.2-0.7l-2.2,7.9c1-1.6,2.1-3.2,3.2-4.8
		c1.6-2.1,3.1-3.1,4.6-3.1c0.6,0,1.1,0.3,1.7,0.8s0.9,1.1,0.9,1.7c0,1.3-0.5,2.9-1.4,4.9c-1,2.2-1.6,3.8-1.8,4.8l0.9,0.1
		c0.8,0,2.3-1.3,4.4-3.9l0.3,1.4C444.9,214.3,443,215.9,441,215.9z"/>
	<path d="M451.9,215.9c-0.6,0-1.1-0.3-1.5-0.8c-0.4-0.5-0.6-1.1-0.6-1.7c0-1.6,1-5.3,3.1-11.3l3.1-0.7c-0.6,1.9-1.2,3.9-1.8,5.8
		c-0.7,2.4-1.2,4.4-1.4,5.9l0.8,0.1c0.6,0,1.8-1.3,3.5-3.9c0.2,0.7,0.3,1.3,0.3,1.8c-0.4,0.8-1.3,1.7-2.5,2.8
		C453.5,215.2,452.5,215.9,451.9,215.9z M456.4,196.9l-0.9-0.3c-0.5-0.4-0.7-1-0.7-1.7c0-0.7,0.5-1.3,1.4-1.8
		c1.4,0.2,2.1,0.8,2.1,1.9C458.2,196.1,457.6,196.8,456.4,196.9z"/>
	<path d="M471.3,204.4c-1.2-0.8-2.2-1.2-3.1-1.2c-1.6,0-3,0.9-4.2,2.8c-1.1,1.7-1.6,3.4-1.6,5.1c0,1.8,0.7,2.7,2,2.7
		c1,0,2.1-0.4,3.3-1.3c1-0.7,1.9-1.5,2.9-2.2l0.4,1.1c-2.9,2.9-5.5,4.3-7.8,4.3c-1.1,0-2.1-0.4-2.8-1.1s-1.1-1.6-1.1-2.8
		c0-2.7,1.1-5.1,3.4-7.3c2.2-2.1,4.7-3.2,7.4-3.2c1.6,0,2.4,0.6,2.4,1.8C472,203.8,471.6,204.2,471.3,204.4z"/>
	<path d="M477,212.4c-0.1,1.2,0.4,1.8,1.6,1.8c1.7,0,3.7-1.3,6-4.1h0.8c-0.3,1.4-1.3,2.7-3.1,3.9c-1.8,1.2-3.3,1.8-4.7,1.8
		c-2.4,0-3.6-1.3-3.6-3.9c0-2,1-4.2,3-6.7c2-2.5,4-3.7,5.8-3.7s2.8,0.9,2.8,2.6C485.6,207.2,482.7,209.9,477,212.4z M482.6,203.1
		c-1.4,0.1-2.6,1.2-3.8,3.1c-1,1.7-1.6,3.4-1.8,4.9c1.5-0.7,2.9-1.5,4.1-2.7c1.6-1.4,2.4-2.7,2.4-4
		C483.6,204.1,483.3,203.6,482.6,203.1z"/>
	<path d="M514.3,211.9c0,0.3,0.1,0.6,0.2,1.1l0.8,0.3c0.7-0.2,2.2-1.6,4.3-4.1c-0.2,1.5-0.8,2.9-1.9,4.1c-1.2,1.4-2.5,2.1-3.9,2.1
		c-0.2,0-0.6-0.1-1.3-0.3c-0.9-0.9-1.2-2.3-0.9-4.4c-2.1,3.2-4.2,4.8-6.5,4.8c-1.1,0-2-0.4-2.7-1.2c-0.7-0.8-1-1.8-1-3
		c0-2.3,1.1-4.6,3.4-6.9c2.2-2.3,4.5-3.5,6.8-3.5c0.9,0,1.7,0.2,2.6,0.5c1.7-5.6,4.1-14.1,7.2-25.4l3.8-2.2l-9.9,33.3
		C514.6,209.6,514.3,211.1,514.3,211.9z M511.5,202.5c-1.8,0-3.4,1-4.9,3c-1.3,1.9-1.9,3.7-1.9,5.6c0,2,0.7,3,2,3
		c0.9,0,2.3-1.4,4.2-4.2c1.9-2.8,2.8-4.8,2.8-5.8C513.6,203,512.9,202.5,511.5,202.5z"/>
	<path d="M532.8,215.7c-1.7,0-2.5-0.8-2.5-2.5c0-0.8,0.2-1.8,0.6-2.9c-2.8,3.7-5.2,5.5-7.1,5.5c-2.1,0-3.2-1.1-3.2-3.4
		c0-2.5,1.2-5,3.5-7.3c2.3-2.3,4.8-3.5,7.3-3.5c0.6,0,1.5,0.2,2.6,0.5l-1.2,1.7c-0.7-0.4-1.5-0.6-2.3-0.6c-1.7,0-3.3,1.1-4.8,3.2
		c-1.5,2.1-2.2,4.1-2.2,5.9c0,0.9,0.5,1.3,1.6,1.3c1.3,0,3.1-1.6,5.3-4.9c0.1,0,1.5-2.3,4.2-6.7h2.1c-0.7,1.7-1.3,3.5-2,5.2
		c-0.9,2.4-1.4,4.1-1.4,5.1c0,0.3,0.1,0.7,0.2,1.3h0.7l3.5-2.8h1.1c-0.3,1.2-1,2.3-2.3,3.4C535.3,215.1,534,215.7,532.8,215.7z"/>
	<path d="M543.7,230c-1.6,0-2.4-0.8-2.4-2.5c0-1.8,1.2-3.9,3.6-6.5c2.6-2.7,4-4.3,4.1-4.7c0.6-2,1.4-4.9,2.5-8.9
		c-3,5.6-5.6,8.4-8,8.4c-1.6,0-2.4-1.2-2.4-3.5c0-1.9,0.9-5.3,2.6-10.2l3.1-0.5c-2,5.5-3.1,9.2-3.1,11c0,0.5,0.1,1,0.3,1.6h0.2
		c1.5,0,4.4-4.1,8.7-12.4h2.8l-2.6,10.5l2.5-2.1l0.3,1.3c-1.1,1.2-2.3,2.4-3.6,3.8c-0.4,0.7-1,2.5-1.8,5.4c-0.8,2.9-1.6,5-2.4,6.3
		C547,229,545.5,230,543.7,230z M542.9,228.5l0.7,0.5c1.9,0,3.5-3.1,4.7-9.3C544.7,222.7,542.9,225.7,542.9,228.5z"/>
	<path d="M565.3,215.9c-0.5,0-0.9-0.3-1.2-0.8c-0.3-0.5-0.5-1-0.5-1.6c0-0.9,0.6-1.3,1.7-1.3c1.1,0,1.7,0.5,1.7,1.6
		C566.9,215.2,566.3,215.9,565.3,215.9z"/>
</g>
</svg>
